<svg xmlns="http://www.w3.org/2000/svg" viewBox="0 0 600 187.7">
    <path fill="#231f20"
        d="M310.49 156.55c-.394.305-1.067.456-2.038.456h-.855l-.517 3.168c-.06.368-.124.792-.214 1.253-.06.487-.122.94-.183 1.426-.06.49-.122.977-.15 1.4-.062.462-.062.824-.062 1.129 0 .516.061.945.18 1.313.125.362.273.635.488.879.214.249.458.429.733.547.304.093.609.156.942.156.247 0 .458 0 .638-.06.186-.03.368-.092.612-.148v.548c-.06.18-.18.36-.336.516-.18.18-.392.368-.638.487-.215.154-.52.24-.824.336-.304.093-.638.12-1.006.12-1.003 0-1.794-.302-2.313-.975-.487-.64-.763-1.55-.763-2.771 0-.453.032-1.001.093-1.613.06-.608.122-1.252.212-1.919.063-.64.185-1.313.275-1.98.125-.67.244-1.313.368-1.89l.392-1.952c-.334 0-.636 0-.882-.022-.214 0-.516-.03-.823-.06v-.397c.49-.699 1.099-1.34 1.83-1.98a12.583 12.583 0 012.284-1.676h.455l-.516 2.496h.884c.424 0 .82-.03 1.186-.052a7.92 7.92 0 001.157-.156c0 .64-.183 1.128-.609 1.432m-15.799-1.138a9.56 9.56 0 011.43-.397c.49-.09 1.006-.12 1.522-.12.212 0 .426.03.64.06.244.03.456.06.641.151l-.913 4.416h.032l1.612-2.679c.394-.64.823-1.128 1.218-1.432.426-.336.881-.487 1.342-.487.333 0 .58.09.76.307.153.18.243.455.243.82 0 .244-.032.517-.09.792-.06.275-.122.548-.246.791a1.234 1.234 0 00-.455-.092c-.154-.03-.337-.03-.487-.03-.488 0-.946.151-1.433.423-.458.276-.884.728-1.25 1.34-.362.609-.698 1.4-.942 2.377-.246 1.004-.397 2.195-.487 3.595l-.246 4.445h-2.526l1.49-13.128-1.855-.577zm-2.678 8.743c-.392 1.276-.913 2.343-1.551 3.228-.61.884-1.31 1.55-2.102 2.012-.763.484-1.523.696-2.285.696-.577 0-1.157-.12-1.676-.331a4.29 4.29 0 01-1.4-1.009c-.397-.455-.7-1.032-.914-1.705-.243-.667-.365-1.458-.365-2.374 0-1.612.183-3.013.58-4.265.363-1.22.882-2.285 1.493-3.108.638-.852 1.337-1.488 2.128-1.92.824-.423 1.615-.64 2.468-.64.609 0 1.188.095 1.705.307.519.185.98.521 1.34.945.367.397.672.945.883 1.583.215.64.305 1.369.305 2.253 0 1.615-.212 3.047-.609 4.328m-2.068-5.485c-.124-.487-.275-.91-.49-1.215a2.487 2.487 0 00-.73-.736 2.095 2.095 0 00-.945-.212c-.426 0-.82.156-1.247.487-.458.368-.823.82-1.191 1.464-.363.609-.638 1.34-.882 2.224a12.35 12.35 0 00-.333 2.925c0 .852.06 1.612.214 2.224.12.58.304 1.096.548 1.458.212.397.484.67.789.821.307.186.611.276.945.276.365 0 .762-.151 1.157-.487.429-.305.791-.792 1.128-1.464.365-.636.638-1.488.881-2.465.215-1.003.336-2.192.336-3.532 0-.672-.06-1.278-.18-1.768m-19.67-3.656a8.997 8.997 0 011.522-.12c.214 0 .397.03.611.06.212.03.426.053.609.117l-.794 4.69h.031c.276-.76.58-1.426.943-2.038.368-.608.733-1.157 1.16-1.585a5.487 5.487 0 011.278-1.036c.426-.243.82-.367 1.218-.367.368 0 .73.095 1.067.307.336.217.638.521.884.945.273.4.455.948.609 1.583.15.609.243 1.369.243 2.224 0 1.673-.214 3.168-.608 4.444-.398 1.253-.916 2.317-1.554 3.172-.641.82-1.372 1.461-2.134 1.885-.79.431-1.583.643-2.343.643-.426 0-.763-.03-1.067-.125-.304-.06-.609-.182-.974-.394l-.426 4.355c-.032.429-.061.791-.032 1.064.032.304.09.548.183.733.092.182.214.33.365.455.153.096.336.183.548.244v.519c-.395.121-.792.24-1.157.272a7.43 7.43 0 01-1.218.093c-.243 0-.516 0-.791-.03-.273-.03-.52-.096-.731-.151l.548-2.56 2.375-17.88-1.859-.58v-.577a6.726 6.726 0 011.493-.368m6.915 3.9c-.092-.488-.182-.88-.336-1.216-.15-.307-.304-.518-.487-.643a.928.928 0 00-.58-.211c-.304 0-.667.15-1.035.455-.394.307-.76.736-1.125 1.284-.368.577-.702 1.276-1.006 2.128-.305.855-.519 1.8-.67 2.897l-.701 4.627c.304.092.611.125.884.151.304.03.577.03.852.03.548 0 1.067-.148 1.586-.485.516-.304.974-.791 1.369-1.4.426-.643.73-1.432 1.006-2.407.243-.945.365-2.04.365-3.317 0-.736-.03-1.371-.122-1.893m-11.204-4.318l-.06-.548c-.093-.792-.366-1.371-.824-1.769-.455-.362-1.157-.547-2.07-.547-.548 0-1.006.092-1.432.217-.397.15-.76.362-1.035.635-.305.276-.52.58-.67.948-.154.365-.215.76-.215 1.189 0 .272.032.516.093.76.03.211.151.455.273.666.153.25.336.49.548.734.246.275.548.547.916.884l2.01 1.795c.547.487 1.005.916 1.368 1.307.336.429.64.83.855 1.19.212.367.365.759.487 1.127.09.368.122.76.122 1.16 0 .852-.183 1.612-.548 2.316a6.039 6.039 0 01-1.464 1.824 7.235 7.235 0 01-2.131 1.188 7.467 7.467 0 01-2.468.424c-.791 0-1.551-.053-2.284-.18-.731-.125-1.369-.273-1.917-.484l.365-3.932h1.004l.092.667c.061.43.183.797.305 1.07.15.307.336.52.577.699.246.18.548.304.916.367.333.087.791.12 1.279.12.516 0 1.003-.06 1.46-.212.459-.15.824-.368 1.19-.643.333-.273.577-.603.791-1.003.183-.366.273-.79.273-1.276 0-.305-.03-.609-.09-.916a3.086 3.086 0 00-.426-.914c-.183-.336-.458-.667-.792-1.067-.336-.397-.762-.82-1.281-1.307l-2.01-1.917c-.365-.336-.64-.672-.881-.948a4.789 4.789 0 01-.58-.916c-.122-.305-.243-.608-.304-.94a5.498 5.498 0 01-.093-1.04c0-.696.153-1.369.426-2.004.305-.643.73-1.22 1.25-1.708a6.587 6.587 0 011.92-1.127 6.75 6.75 0 012.374-.43c.884 0 1.615.06 2.255.186.61.119 1.189.307 1.676.55l-.368 3.805zm-17.108 3.867c-.031.305-.092.64-.121.977-.061.33-.122.667-.154 1.035-.059.336-.09.667-.15 1.003l-.549 3.288c-.031.186-.031.368-.06.609-.032.217-.061.431-.093.672-.03.244-.061.456-.061.667-.032.25-.032.43-.032.58 0 .522.125.885.368 1.096.244.25.577.4 1.064.493v.516c-.333.18-.73.336-1.125.424-.397.092-.823.156-1.31.156s-.853-.125-1.096-.368c-.273-.244-.397-.58-.397-1.035 0-.185.031-.43.031-.701.03-.244.061-.548.093-.824.03-.304.09-.608.12-.884.03-.3.092-.574.121-.82l.58-3.503c.029-.24.06-.485.121-.76.032-.272.061-.548.093-.82.03-.276.061-.548.061-.792.03-.25.03-.492.03-.704 0-.336-.03-.609-.09-.852a2.167 2.167 0 00-.308-.58 1.449 1.449 0 00-.426-.305 1.428 1.428 0 00-.516-.087c-.426 0-.884.18-1.372.58a5.434 5.434 0 00-1.34 1.612c-.425.667-.79 1.49-1.066 2.404-.305.948-.458 1.951-.487 3.015l-.183 5.15h-2.589l1.522-13.129-1.858-.58v-.577c.49-.182.974-.307 1.464-.4.455-.087 1.006-.12 1.554-.12.212 0 .394.03.606.06.215.03.429.054.64.15l-.973 4.659h.031c.334-.792.73-1.459 1.157-2.068.426-.608.852-1.128 1.34-1.556a5.59 5.59 0 011.461-.972 3.844 3.844 0 011.522-.336c.336 0 .67.06.945.18.305.124.55.307.763.524.211.241.394.548.516.88.122.335.185.764.185 1.22 0 .24 0 .516-.031.82m-13.547 8.56c.092.125.121.276.121.461 0 .363-.121.697-.336 1.033a3.17 3.17 0 01-.942.855c-.398.244-.885.423-1.4.577a6.52 6.52 0 01-1.737.215c-.641 0-1.25-.096-1.769-.307-.548-.212-.974-.548-1.369-.972a5.189 5.189 0 01-.884-1.676c-.214-.64-.304-1.432-.304-2.345 0-1.708.182-3.196.58-4.448.394-1.278.881-2.316 1.49-3.169.64-.823 1.31-1.43 2.073-1.858.76-.392 1.493-.609 2.253-.609 1.035 0 1.858.244 2.406.797.548.517.853 1.308.853 2.343 0 .884-.212 1.705-.641 2.404a5.87 5.87 0 01-1.644 1.83c-.699.515-1.461.883-2.343 1.159a8.802 8.802 0 01-2.65.392c0 .915.06 1.675.18 2.284.122.58.275 1.035.519 1.403.244.337.519.577.852.702.337.12.731.182 1.19.182.272 0 .547-.03.883-.124.305-.06.638-.151.943-.305.304-.15.58-.301.852-.487.244-.18.458-.391.61-.611.06.06.153.156.213.275m-1.826-10.078c-.244-.305-.609-.458-1.038-.458-.333 0-.699.122-1.096.43-.365.272-.73.667-1.035 1.156a6.908 6.908 0 00-.82 1.856c-.215.699-.308 1.496-.308 2.375.67 0 1.31-.087 1.89-.276.578-.18 1.067-.424 1.49-.76.43-.336.734-.727.978-1.22.243-.485.336-1.003.336-1.583 0-.728-.125-1.218-.397-1.52m-14.215 1.52c-.032.305-.093.641-.122.977a9.96 9.96 0 00-.15 1.035c-.062.337-.094.667-.154 1.004l-.548 3.288c-.032.185-.032.367-.061.608-.032.217-.06.432-.093.673-.029.243-.06.455-.06.667-.03.249-.03.429-.03.58 0 .521.122.884.365 1.096.244.249.58.4 1.067.492v.516c-.336.18-.733.337-1.127.424a5.683 5.683 0 01-1.31.156c-.488 0-.853-.124-1.097-.367-.273-.244-.397-.58-.397-1.035 0-.186.032-.43.032-.702.029-.244.06-.548.092-.823.03-.305.09-.609.122-.885.03-.299.09-.574.12-.82l.579-3.503c.03-.24.06-.484.122-.76.031-.272.06-.547.092-.82.03-.275.061-.548.061-.792.03-.249.03-.492.03-.704 0-.336-.03-.608-.09-.852a2.244 2.244 0 00-.305-.58 1.463 1.463 0 00-.429-.305 1.428 1.428 0 00-.516-.087c-.426 0-.884.18-1.371.58a5.434 5.434 0 00-1.34 1.613c-.426.667-.791 1.49-1.067 2.404-.304.947-.458 1.95-.487 3.015l-.183 5.149h-2.589l1.525-13.128-1.86-.58v-.577c.489-.183.976-.307 1.463-.4.458-.087 1.006-.12 1.554-.12.212 0 .395.03.609.06.212.03.426.053.638.149l-.974 4.66h.031c.334-.792.731-1.46 1.157-2.068.427-.609.853-1.128 1.34-1.557a5.68 5.68 0 011.461-.972 3.847 3.847 0 011.525-.336c.334 0 .667.06.942.18.305.125.551.307.763.525.212.24.397.548.516.879.122.336.185.765.185 1.22 0 .241 0 .516-.031.82m-16.05 15.69c-.243.729-.576 1.34-.942 1.796a3.396 3.396 0 01-2.682 1.281c-.394 0-.791-.06-1.186-.211-.397-.186-.701-.368-.916-.609v-.548c.52 0 .977-.06 1.433-.22a3.41 3.41 0 001.188-.728c.334-.336.638-.76.882-1.307.246-.548.397-1.189.487-1.949l1.676-13.252.093-1.827-1.859-.577v-.58a8.652 8.652 0 011.493-.4 8.649 8.649 0 011.522-.119c.52 0 .975.06 1.372.182l-1.951 16.448c-.122 1.033-.334 1.917-.61 2.621m3.262-23.36a1.979 1.979 0 01-.368.603c-.15.156-.333.307-.548.4a1.616 1.616 0 01-.638.154c-.429 0-.762-.124-1.006-.397-.275-.244-.397-.611-.397-1.064 0-.244.032-.487.122-.736.092-.212.214-.423.397-.58.15-.18.333-.3.548-.424.183-.092.426-.148.64-.148.183 0 .366.022.548.12.151.06.305.18.427.304.15.124.243.272.304.455.09.186.122.366.122.578 0 .243-.06.518-.151.736m-11.008 18.82c-.244-.244-.365-.58-.365-1.035 0-.212 0-.484.029-.821.031-.336.06-.672.122-1.04.031-.392.092-.76.153-1.123.03-.397.06-.733.122-1.038l.974-6.184.153-1.795-1.829-.58v-.577a8.454 8.454 0 011.493-.4 8.87 8.87 0 011.554-.12c.273 0 .516 0 .73.03.245.03.427.06.642.152l-1.372 8.955c-.031.212-.06.485-.092.79-.03.306-.059.58-.09.884 0 .307-.03.58-.061.855v.728c0 .521.093.884.273 1.127.214.273.518.461.945.609v.516c-.337.156-.67.244-1.035.307-.366.092-.792.125-1.25.125-.487 0-.852-.125-1.096-.368m4.477-18.82c-.09.24-.212.424-.366.603-.15.156-.333.305-.548.4a1.618 1.618 0 01-.64.154c-.427 0-.76-.124-1.004-.397-.275-.244-.397-.611-.397-1.067 0-.24.032-.485.122-.733.122-.212.243-.423.397-.58.153-.18.334-.3.516-.423.215-.093.426-.149.673-.149.394 0 .73.149 1.003.424.244.273.394.609.394 1.033 0 .243-.06.519-.15.736m-7.883 7.612a82.854 82.854 0 01-1.949 3.2 94.62 94.62 0 01-2.012 3.108c-.67 1.003-1.4 2.036-2.13 3.108h3.867c.397 0 .762-.03 1.035-.06.304-.03.548-.092.73-.154.183-.09.337-.182.459-.275.121-.12.243-.273.304-.423l.304-.641.61.06c0 1.308-.273 2.255-.792 2.864-.519.58-1.34.88-2.467.88-.334 0-.731 0-1.19-.054l-1.429-.092a66.17 66.17 0 01-1.371-.095c-.458-.03-.823-.053-1.128-.053h-.577c-.185.03-.397.03-.58.053-.214 0-.394.03-.609.03-.182.03-.333.06-.487.092l8.133-12.76h-3.26c-.672 0-1.188.087-1.553.243-.365.149-.609.392-.73.697l-.244.519-.702-.12c0-.547.06-1.034.183-1.463.121-.424.275-.792.519-1.096.211-.305.487-.548.82-.728a2.388 2.388 0 011.099-.244c1.064 0 2.01.03 2.8.12.792.06 1.401.092 1.798.092.792 0 1.583-.06 2.407-.186a111.172 111.172 0 01-1.859 3.38m-13.764 11.208c-.275-.244-.397-.609-.397-1.065 0-.211.032-.487.032-.823l.09-1.064c.031-.368.092-.736.121-1.096.032-.4.093-.736.122-1.009l2.134-15.108-1.92-.574v-.58a6.275 6.275 0 011.462-.365c.458-.096 1.006-.125 1.583-.125.244 0 .519 0 .762.03.244.06.458.096.638.156l-2.282 15.955c-.031.25-.06.525-.092.797l-.09.91c0 .273-.032.58-.032.885-.029.272-.029.516-.029.76 0 .521.122.884.365 1.128.212.272.577.46 1.004.608v.516c-.67.276-1.432.432-2.343.432-.519 0-.884-.125-1.128-.368m-3.192-2.591c.092.124.121.275.121.46 0 .363-.121.697-.336 1.033a3.17 3.17 0 01-.942.855c-.397.244-.885.423-1.4.577a6.52 6.52 0 01-1.737.215c-.641 0-1.25-.095-1.769-.307-.548-.212-.974-.548-1.368-.972a5.189 5.189 0 01-.885-1.675c-.214-.641-.304-1.433-.304-2.346 0-1.707.183-3.195.58-4.447.394-1.279.881-2.317 1.49-3.17.64-.823 1.31-1.429 2.073-1.858.76-.391 1.49-.608 2.253-.608 1.035 0 1.858.244 2.406.797.548.516.853 1.307.853 2.343 0 .884-.212 1.704-.64 2.403a5.87 5.87 0 01-1.645 1.83c-.699.516-1.461.884-2.343 1.16a8.801 8.801 0 01-2.65.39c0 .917.061 1.677.18 2.286.122.58.276 1.035.52 1.403.243.336.518.577.852.701.336.12.73.183 1.188.183.273 0 .548-.03.884-.125.302-.06.638-.15.943-.304.304-.151.58-.302.852-.487.244-.18.458-.392.61-.612.06.06.153.156.214.275m-1.827-10.078c-.244-.304-.612-.457-1.038-.457-.333 0-.699.121-1.096.429-.365.272-.73.667-1.035 1.157a6.908 6.908 0 00-.82 1.856c-.215.698-.308 1.495-.308 2.374.67 0 1.31-.087 1.89-.275.578-.18 1.067-.424 1.49-.76.427-.336.734-.728.978-1.22.243-.485.333-1.004.333-1.583 0-.728-.121-1.218-.394-1.52m-14.942 13.066l-1.4-17.152h-.032l-5.33 17.059-2.04.092-2.407-18.277-1.551-.518v-.609c.455-.15.91-.275 1.308-.362.426-.06.852-.093 1.278-.093.458 0 .853.03 1.25.06.365.03.762.12 1.157.244v.519a1.09 1.09 0 00-.577.365.759.759 0 00-.183.519l1.43 14.129h.031l4.935-15.625 2.8-.151 1.219 16.326h.031l4.691-14.836-1.615-.487v-.609a9.177 9.177 0 012.923-.455c.304 0 .611.03.913.06.307.06.58.15.855.243v.52c-.243.06-.487.18-.67.335a1.355 1.355 0 00-.397.548l-6.456 18.06zm314.58-34.384c-.275.606-.58 1.152-.974 1.644a6.398 6.398 0 01-1.25 1.308c-.455.336-.881.58-1.279.672l-.852-.185c.334-.336.64-.667.913-1.067.276-.397.52-.789.734-1.189.211-.391.362-.791.452-1.183.125-.368.186-.733.186-1.07l-1.128-1.278a4.44 4.44 0 01.942-.914c.368-.243.734-.362 1.07-.362.212 0 .394.03.58.12.211.092.362.211.516.365.15.15.243.336.333.58.093.244.125.487.125.791 0 .58-.125 1.19-.368 1.769m-7.12-8.651c-.032.33-.093.667-.154 1.035-.029.365-.09.728-.119 1.125-.063.394-.095.762-.153 1.127-.032.363-.061.7-.09 1.004 0 .304-.032.548-.032.733 0 .487.032.879.09 1.186.064.305.154.548.244.733.121.18.275.305.458.363.182.092.426.153.67.185v.635c-.488.156-.914.276-1.34.337a6.5 6.5 0 01-1.371.124 5.03 5.03 0 01-.7-.06c-.214-.03-.396-.092-.58-.15l.76-4.602h-.028a13.23 13.23 0 01-.975 1.98c-.368.58-.762 1.128-1.188 1.552-.427.46-.853.796-1.308 1.07a2.662 2.662 0 01-1.31.362c-.337 0-.702-.12-1.007-.337-.333-.211-.638-.547-.881-1.003-.276-.455-.49-1.003-.64-1.676a10.638 10.638 0 01-.244-2.348c0-1.52.211-2.888.609-4.108.397-1.216.974-2.288 1.644-3.135a7.412 7.412 0 012.435-1.948 6.399 6.399 0 012.894-.704c.182 0 .368 0 .58.03.214 0 .426 0 .58.03l.883-5.488-2.012-.575v-.577a6.154 6.154 0 011.493-.368c.488-.092 1.096-.124 1.737-.124.273 0 .516 0 .73.03.244.06.456.092.67.156l-2.223 12.604c-.032.217-.061.492-.122.797m-2.102-4.784c-.244-.03-.516-.03-.762-.03-.638 0-1.218.149-1.798.453-.577.306-1.064.767-1.49 1.403-.427.64-.763 1.432-1.038 2.409-.244 1.003-.363 2.16-.363 3.5 0 .64.03 1.188.12 1.643.095.456.185.855.336 1.16.153.305.307.516.487.672.182.12.394.212.58.212.304 0 .64-.125 1.035-.368.365-.272.73-.64 1.066-1.157.363-.519.7-1.16 1.006-1.95.273-.792.485-1.706.668-2.772l.855-5.057c-.215-.03-.427-.088-.702-.12m-13.702 13.012c-.244-.244-.365-.58-.365-1.035 0-.212 0-.484.029-.82.032-.337.064-.673.124-1.041.03-.392.09-.76.151-1.123.03-.397.061-.733.122-1.038l.977-6.184.148-1.795-1.824-.58v-.577a8.428 8.428 0 011.49-.4 8.87 8.87 0 011.555-.119c.275 0 .516 0 .73.03.244.03.427.06.641.15l-1.371 8.957c-.032.211-.061.484-.093.789-.03.307-.059.58-.09.884 0 .307-.032.58-.064.855v.728c0 .521.096.884.278 1.128.212.272.516.46.943.608v.516c-.337.156-.67.244-1.035.307-.366.093-.792.125-1.25.125-.487 0-.852-.125-1.096-.368m4.477-18.82c-.09.241-.215.423-.366.603-.15.157-.333.305-.548.4a1.618 1.618 0 01-.64.154c-.427 0-.763-.124-1.004-.397-.275-.244-.397-.611-.397-1.067 0-.24.032-.484.122-.733.122-.211.244-.423.397-.58.151-.18.334-.3.519-.423.212-.092.426-.149.67-.149.394 0 .73.149 1.006.424.24.272.394.608.394 1.032 0 .244-.06.52-.153.736m-7.58 16.232c.09.125.122.276.122.461 0 .362-.121.696-.333 1.032-.246.337-.55.612-.945.856-.397.243-.882.423-1.403.577a6.513 6.513 0 01-1.734.214c-.641 0-1.25-.095-1.766-.307-.55-.211-.974-.548-1.374-.971a5.29 5.29 0 01-.882-1.676c-.214-.64-.304-1.432-.304-2.346 0-1.707.185-3.195.58-4.447.394-1.279.881-2.316 1.49-3.169.64-.823 1.313-1.43 2.073-1.858.762-.392 1.49-.609 2.253-.609 1.037 0 1.858.244 2.406.797.548.516.855 1.308.855 2.343 0 .884-.214 1.705-.643 2.404a5.87 5.87 0 01-1.644 1.829c-.7.516-1.462.884-2.343 1.16a8.79 8.79 0 01-2.65.391c0 .916.058 1.676.183 2.285.121.58.275 1.035.516 1.403.243.336.519.577.855.702.333.119.728.182 1.186.182.273 0 .548-.03.884-.124.305-.06.638-.151.943-.305.304-.15.58-.302.855-.487.24-.18.455-.392.608-.612.06.06.151.156.212.276m-1.826-10.078c-.244-.305-.612-.458-1.035-.458-.337 0-.702.121-1.1.428a4.286 4.286 0 00-1.034 1.157c-.336.517-.61 1.123-.82 1.856-.215.699-.308 1.496-.308 2.375a6.08 6.08 0 001.888-.276c.58-.18 1.07-.423 1.495-.76.427-.336.728-.727.975-1.22.243-.485.333-1.003.333-1.583 0-.728-.122-1.218-.394-1.52m-12.664 12.67c-.273-.244-.395-.58-.395-1.036 0-.185 0-.429.03-.701.029-.276.06-.58.121-.884.03-.302.061-.607.122-.911.031-.305.09-.609.122-.853l.548-3.383c.031-.211.09-.485.122-.76.031-.304.06-.58.09-.852.031-.305.063-.548.063-.823.03-.241.03-.458.03-.641 0-.673-.122-1.157-.395-1.432a1.357 1.357 0 00-.974-.392c-.368 0-.795.148-1.22.485-.456.307-.882.76-1.25 1.37a8.496 8.496 0 00-1.035 2.161c-.305.855-.487 1.832-.548 2.928l-.366 5.816h-2.557l1.279-9.9 1.003-10.357-1.887-.574v-.58a6.395 6.395 0 011.524-.365 9.08 9.08 0 011.584-.125c.275 0 .518 0 .76.03.214.06.426.095.64.156l-1.615 11.148h.032a8.953 8.953 0 011.032-1.768 6.87 6.87 0 011.25-1.34 4.716 4.716 0 011.374-.884c.484-.18.974-.305 1.458-.305.765 0 1.343.273 1.766.76.429.522.643 1.189.643 2.044 0 .24-.031.545-.031.852-.032.305-.064.641-.122.977-.031.331-.09.667-.153 1.003-.03.366-.09.697-.151 1.004l-.548 3.2c-.032.18-.061.392-.09.609-.032.244-.064.487-.064.73-.031.242-.058.486-.058.697-.032.217-.032.429-.032.58 0 .522.122.885.334 1.096.246.25.608.397 1.098.493v.516c-.336.18-.73.336-1.128.423-.397.092-.82.156-1.31.156-.487 0-.852-.124-1.096-.367m-10.928-8.222c-.032.33-.093.667-.153 1.035-.03.365-.09.728-.122 1.125-.061.395-.093.762-.151 1.128-.032.362-.064.698-.09 1.003 0 .304-.032.548-.032.733 0 .487.032.879.09 1.186.064.305.154.548.244.733.122.18.273.305.458.363.183.092.426.153.67.185v.635c-.487.157-.914.276-1.34.337a6.5 6.5 0 01-1.371.124 5.03 5.03 0 01-.699-.06c-.214-.03-.397-.092-.58-.15l.76-4.602h-.03a13.231 13.231 0 01-.973 1.98c-.368.58-.763 1.128-1.19 1.552-.425.46-.852.797-1.307 1.07a2.662 2.662 0 01-1.31.362c-.337 0-.702-.12-1.006-.336-.334-.212-.638-.548-.882-1.004-.275-.455-.49-1.003-.64-1.676a10.638 10.638 0 01-.244-2.348c0-1.52.212-2.888.609-4.108.397-1.215.974-2.288 1.644-3.135a7.411 7.411 0 012.435-1.948 6.399 6.399 0 012.894-.704c.183 0 .368 0 .58.03.214 0 .426 0 .58.03l.881-5.488-2.01-.575v-.577a6.164 6.164 0 011.491-.368c.49-.092 1.099-.124 1.737-.124.275 0 .519 0 .733.03.244.06.458.092.67.156l-2.224 12.604c-.031.217-.064.492-.122.797m-2.102-4.784c-.243-.03-.516-.03-.762-.03-.638 0-1.218.149-1.798.453-.577.307-1.064.767-1.49 1.403-.426.64-.762 1.432-1.038 2.409-.243 1.003-.365 2.16-.365 3.5 0 .64.031 1.188.122 1.643.095.456.185.856.336 1.16.153.305.307.516.487.672.183.12.394.212.58.212.304 0 .64-.124 1.035-.368.365-.272.73-.64 1.067-1.156.362-.52.699-1.16 1.006-1.952.272-.791.484-1.704.667-2.771l.855-5.057c-.214-.03-.426-.087-.702-.119m-10.349 1.863c-.031.305-.09.64-.121.977-.061.33-.122.667-.154 1.035-.06.336-.09.667-.15 1.003l-.549 3.288c-.031.185-.031.368-.063.609-.027.217-.06.431-.09.672-.03.243-.059.456-.059.667-.032.25-.032.43-.032.58 0 .522.122.884.366 1.096.243.25.577.397 1.064.493v.516a4.45 4.45 0 01-1.125.424c-.397.092-.824.156-1.31.156s-.853-.125-1.097-.368c-.272-.244-.394-.58-.394-1.035 0-.185.026-.428.026-.702.032-.243.064-.547.095-.823.03-.304.09-.608.122-.884.03-.3.09-.574.12-.82l.58-3.503c.03-.241.06-.485.121-.76.032-.272.06-.548.09-.82.032-.276.064-.548.064-.792.029-.25.029-.492.029-.704 0-.336-.03-.609-.093-.852a2.075 2.075 0 00-.302-.58 1.523 1.523 0 00-.426-.305 1.452 1.452 0 00-.519-.087c-.429 0-.884.18-1.371.58a5.433 5.433 0 00-1.34 1.611c-.426.668-.794 1.49-1.066 2.404-.302.948-.456 1.951-.488 3.016l-.182 5.149h-2.59l1.523-13.128-1.858-.58v-.578c.49-.182.976-.307 1.464-.4.455-.087 1.006-.119 1.554-.119.211 0 .394.03.606.06.217.03.429.053.643.148l-.974 4.66h.026c.336-.792.733-1.46 1.16-2.068.426-.609.852-1.128 1.34-1.557a5.633 5.633 0 011.46-.971 3.847 3.847 0 011.525-.337c.334 0 .668.06.943.18.304.125.548.307.762.525.212.24.395.548.517.879.121.336.185.765.185 1.22 0 .241 0 .517-.032.82m-13.764 5.703c-.397 1.276-.916 2.343-1.554 3.227-.609.885-1.31 1.552-2.102 2.012-.762.485-1.522.697-2.284.697-.58 0-1.157-.12-1.676-.331a4.262 4.262 0 01-1.4-1.009c-.398-.455-.702-1.032-.914-1.705-.244-.667-.368-1.458-.368-2.374 0-1.612.185-3.013.58-4.265.368-1.22.884-2.285 1.496-3.108.638-.852 1.336-1.488 2.128-1.92.823-.423 1.618-.64 2.47-.64.606 0 1.186.095 1.702.307a3.21 3.21 0 011.342.945c.366.397.67.945.882 1.583.214.64.304 1.369.304 2.253 0 1.615-.211 3.047-.606 4.328m-2.073-5.485c-.122-.487-.275-.91-.487-1.215a2.486 2.486 0 00-.73-.736 2.087 2.087 0 00-.946-.212c-.426 0-.82.156-1.247.487-.458.368-.823.82-1.19 1.464-.364.608-.639 1.34-.882 2.224a12.35 12.35 0 00-.334 2.925c0 .852.06 1.612.214 2.224.12.58.302 1.096.548 1.458.212.397.485.67.79.821.306.185.61.275.944.275.368 0 .763-.15 1.157-.487.427-.304.792-.791 1.128-1.464.365-.635.638-1.487.882-2.464.214-1.004.336-2.192.336-3.532 0-.672-.059-1.278-.183-1.768m-10.866-.275a82.854 82.854 0 01-1.948 3.2 94.62 94.62 0 01-2.012 3.109c-.67 1.003-1.4 2.036-2.131 3.108h3.867c.398 0 .76-.03 1.036-.06.304-.03.548-.093.73-.154.186-.09.336-.182.458-.276.122-.119.244-.272.305-.423l.304-.64.609.06c0 1.307-.273 2.255-.792 2.864-.518.58-1.342.879-2.467.879-.333 0-.73 0-1.188-.053l-1.433-.092a67.17 67.17 0 01-1.368-.096c-.458-.03-.824-.052-1.128-.052h-.58c-.18.03-.394.03-.577.052-.215 0-.397.03-.609.03-.183.03-.336.06-.49.093l8.136-12.76h-3.262c-.67 0-1.186.087-1.551.243-.366.148-.61.392-.731.696l-.244.52-.701-.12c0-.548.06-1.035.183-1.464.121-.423.272-.791.518-1.096.212-.304.487-.548.824-.728.301-.156.67-.243 1.096-.243 1.064 0 2.009.03 2.8.12.792.06 1.404.092 1.798.092.792 0 1.583-.06 2.404-.186a105.77 105.77 0 01-1.856 3.381m-10.23 8.615c.09.125.122.276.122.461 0 .363-.122.697-.334 1.033-.246.336-.55.611-.945.855-.397.244-.881.424-1.403.577a6.513 6.513 0 01-1.734.214c-.64 0-1.25-.095-1.766-.306-.55-.212-.974-.548-1.374-.972a5.238 5.238 0 01-.881-1.676c-.215-.64-.305-1.432-.305-2.345 0-1.708.183-3.196.58-4.448.395-1.278.882-2.316 1.49-3.169.641-.823 1.311-1.43 2.073-1.858.763-.392 1.491-.609 2.253-.609 1.038 0 1.859.244 2.407.797.548.517.855 1.308.855 2.343 0 .884-.215 1.705-.643 2.404a5.87 5.87 0 01-1.644 1.83c-.7.515-1.464.883-2.343 1.159a8.802 8.802 0 01-2.65.391c0 .916.058 1.676.182 2.285.122.58.273 1.035.516 1.403.244.336.52.577.856.702.333.12.728.182 1.186.182.272 0 .548-.03.884-.124.304-.06.638-.151.942-.305.305-.15.58-.301.853-.487a2.73 2.73 0 00.611-.611c.059.06.151.156.212.275m-1.827-10.078c-.243-.305-.611-.458-1.035-.458-.336 0-.701.122-1.098.429a4.286 4.286 0 00-1.036 1.157c-.336.516-.608 1.122-.82 1.855-.215.699-.307 1.496-.307 2.375.67 0 1.313-.087 1.887-.275.58-.18 1.07-.424 1.496-.76.426-.336.728-.728.974-1.22.244-.485.334-1.004.334-1.584 0-.728-.122-1.217-.395-1.52m-9.833 5.632c-.06.517-.121 1.096-.153 1.676-.03.577-.061 1.128-.093 1.676-.03.548-.03 1.038-.03 1.432 0 1.737-.182 3.23-.576 4.477-.397 1.252-.945 2.285-1.618 3.076-.699.792-1.49 1.4-2.374 1.769a7.14 7.14 0 01-2.862.58c-.67 0-1.31-.06-1.83-.217a3.862 3.862 0 01-1.368-.58c-.365-.244-.67-.548-.853-.88a2.193 2.193 0 01-.307-1.127c0-.365.096-.733.247-1.038.18-.301.423-.58.701-.823.273-.243.606-.423.974-.58.366-.119.728-.18 1.096-.18-.304.305-.518.641-.64.946a2.845 2.845 0 00-.183 1.035c0 .58.244 1.064.67 1.464.455.362 1.128.547 1.98.547a3.83 3.83 0 001.551-.304c.49-.212.948-.52 1.31-.948.398-.423.734-.972 1.007-1.644.243-.64.455-1.4.548-2.285l.58-5.358h-.032a9.923 9.923 0 01-1.006 1.98c-.363.575-.76 1.099-1.186 1.522-.397.429-.82.728-1.279.977-.426.212-.852.331-1.25.331-.335 0-.669-.087-1.005-.33-.336-.217-.61-.548-.884-1.01-.241-.423-.456-1.003-.638-1.675a11.081 11.081 0 01-.244-2.404c0-1.464.212-2.803.609-3.992.394-1.215.945-2.256 1.644-3.108a7.606 7.606 0 012.406-2.007 6.467 6.467 0 012.926-.701c.608 0 1.217.06 1.826.148.612.095 1.189.188 1.708.336l-1.192 5.848c-.09.368-.15.824-.18 1.372m-2.134-5.968c-.24-.03-.484-.03-.762-.03-.577 0-1.154.151-1.673.456-.55.336-1.035.823-1.461 1.464-.427.64-.734 1.464-1.006 2.436-.244.976-.366 2.104-.366 3.412 0 .672.061 1.22.154 1.676.09.484.18.852.333 1.157.151.275.337.487.52.64a.84.84 0 00.547.215c.302 0 .67-.124 1.035-.4.395-.244.763-.64 1.096-1.189.366-.516.7-1.183.975-1.974.304-.824.518-1.769.672-2.865l.699-4.876c-.244-.053-.487-.12-.763-.12m-9.07.696c-.122.305-.244.548-.395.733a5.316 5.316 0 00-1.583-1.096 4.135 4.135 0 00-1.737-.397c-.702 0-1.191.151-1.554.487a1.62 1.62 0 00-.519 1.22c0 .21.032.424.093.61.06.18.15.391.273.58.153.211.336.423.58.696.272.244.58.548.942.884l1.16 1.035c.365.336.67.641.942.916.243.273.426.577.58.853.153.275.275.547.336.823.058.305.09.609.09.945a3.38 3.38 0 01-.427 1.702 4.464 4.464 0 01-1.186 1.462c-.519.4-1.098.736-1.8.976-.67.244-1.398.363-2.224.363-.942 0-1.644-.151-2.099-.423a1.528 1.528 0 01-.672-1.308c0-.276.063-.522.153-.704.06-.212.183-.392.336-.58.427.431.885.736 1.372.948a4.006 4.006 0 001.583.336c.365 0 .701-.06 1.003-.156.336-.093.612-.244.852-.424.247-.185.427-.397.549-.64.121-.276.214-.548.214-.885 0-.243-.03-.487-.093-.698a2.055 2.055 0 00-.302-.673 4.183 4.183 0 00-.58-.727 12.91 12.91 0 00-.913-.916l-1.098-.977c-.331-.331-.607-.604-.853-.88a3.208 3.208 0 01-.548-.82 2.994 2.994 0 01-.302-.823 4.248 4.248 0 01-.092-.916c0-.516.122-1.009.365-1.493.214-.456.548-.884.945-1.279a5.536 5.536 0 011.49-.913 5.737 5.737 0 011.952-.336c1.096 0 1.916.153 2.464.46.58.305.855.697.855 1.184 0 .272-.06.548-.153.852m-19.55-9.013a6.135 6.135 0 011.432-.368c.487-.092 1.064-.124 1.676-.124.243 0 .484 0 .728.03.212.06.426.092.64.156l-1.768 13.372h.032l1.707-1.34c.305-.249.638-.58 1.004-.976.333-.427.64-.885.945-1.372.333-.455.609-.977.823-1.493.24-.518.426-1.035.548-1.49.76 0 1.279.087 1.583.275.302.18.455.423.455.728 0 .273-.121.641-.333 1.035-.215.43-.519.853-.916 1.282-.363.455-.82.91-1.308 1.368-.519.456-1.035.855-1.615 1.247l-1.31.916 3.838 5.88c.244.397.548.696.853.971.307.25.67.461 1.128.673v.516c-.276.185-.58.305-.853.368-.275.06-.638.092-1.038.092-.211 0-.455-.03-.67-.092-.211-.06-.426-.183-.637-.307a2.776 2.776 0 01-.61-.609c-.211-.243-.396-.548-.61-.916l-3.138-5.784h-.026l-.519 7.373h-2.62l1.217-7.953 1.25-12.305-1.888-.574zm-6.546 21.318c-.273-.244-.395-.608-.395-1.064 0-.212.03-.487.03-.823.031-.337.06-.704.092-1.065.03-.367.093-.736.122-1.096.03-.4.093-.736.12-1.008l2.133-15.108-1.92-.574v-.58c.49-.186.975-.305 1.462-.366.458-.095 1.009-.124 1.586-.124.243 0 .519 0 .762.03.244.06.456.095.638.156l-2.282 15.955c-.031.249-.063.524-.092.797-.032.299-.064.606-.093.91 0 .273-.03.58-.03.885-.03.272-.03.516-.03.76 0 .52.12.884.364 1.127.215.272.578.46 1.006.609v.516c-.67.275-1.43.431-2.345.431-.519 0-.884-.124-1.128-.367m-3.526-5.45c-.398 1.275-.916 2.342-1.557 3.226-.606.885-1.308 1.552-2.1 2.012-.762.485-1.524.697-2.284.697-.58 0-1.16-.12-1.676-.331a4.29 4.29 0 01-1.4-1.009c-.397-.455-.699-1.032-.913-1.705-.244-.667-.368-1.458-.368-2.374 0-1.612.185-3.013.582-4.265.363-1.22.882-2.285 1.49-3.108.641-.853 1.34-1.488 2.134-1.92.823-.423 1.615-.64 2.467-.64.607 0 1.186.095 1.705.307.52.185.975.521 1.34.945.365.397.67.945.884 1.583.212.64.305 1.368.305 2.253 0 1.614-.217 3.047-.61 4.328m-2.072-5.485c-.12-.487-.275-.91-.487-1.215a2.456 2.456 0 00-.73-.737 2.08 2.08 0 00-.946-.211c-.426 0-.82.156-1.247.487-.458.368-.823.82-1.188 1.464-.366.608-.641 1.34-.882 2.224a12.35 12.35 0 00-.336 2.925c0 .852.06 1.612.212 2.224.124.58.304 1.096.548 1.458.214.397.487.67.791.821.307.185.609.275.945.275.368 0 .763-.15 1.157-.487.429-.304.792-.791 1.128-1.464.365-.635.638-1.487.884-2.464.212-1.004.334-2.192.334-3.532 0-.672-.059-1.279-.183-1.768m-16.81 11.333l-2.71-18.277-1.436-.519v-.608c.461-.151.885-.276 1.284-.363a8.47 8.47 0 011.276-.092c.43 0 .855.03 1.22.06.334.06.731.15 1.097.244v.519c-.244.06-.458.18-.577.365a.587.587 0 00-.186.519l1.766 14.833h.032l5.392-14.99-1.644-.486v-.609a9.37 9.37 0 012.952-.455c.275 0 .58.03.913.06.305.06.61.15.853.244v.519c-.244.06-.485.18-.67.333-.15.12-.302.307-.394.551l-7.098 18.06zm-11.321-11.546c-.032.304-.093.64-.122.976-.058.331-.121.668-.153 1.036-.061.336-.093.667-.151 1.003l-.548 3.288c-.032.185-.032.368-.06.608-.03.217-.062.432-.093.673-.03.243-.061.455-.061.667-.032.25-.032.43-.032.58 0 .522.125.884.368 1.096.244.25.577.397 1.064.492v.517c-.333.18-.728.336-1.127.424-.392.092-.821.156-1.308.156-.485 0-.853-.125-1.096-.368-.273-.244-.397-.58-.397-1.035 0-.185.029-.429.029-.702.032-.243.064-.548.095-.823.03-.305.09-.609.12-.884.029-.3.092-.574.121-.82l.58-3.503c.031-.241.064-.485.122-.76.031-.273.058-.548.09-.82.031-.276.063-.549.063-.792.03-.25.03-.493.03-.704 0-.336-.03-.609-.093-.853a2.01 2.01 0 00-.305-.58c-.119-.12-.275-.24-.423-.304a1.459 1.459 0 00-.517-.087c-.431 0-.886.18-1.373.579-.49.392-.946.908-1.34 1.612-.426.667-.792 1.49-1.067 2.404-.304.948-.458 1.951-.487 3.015l-.183 5.15h-2.589l1.522-13.129-1.858-.58v-.577c.49-.182.974-.307 1.464-.4.458-.088 1.006-.12 1.554-.12.212 0 .394.03.606.06.215.03.43.053.64.149l-.973 4.66h.031c.334-.792.731-1.46 1.157-2.069.426-.608.853-1.127 1.34-1.556a5.634 5.634 0 011.461-.972 3.844 3.844 0 011.522-.336c.334 0 .67.06.945.18.305.125.548.307.763.525.212.24.394.548.516.879.122.336.185.765.185 1.22 0 .24 0 .516-.031.82m-14.492 3.598c-.09.517-.151 1.065-.215 1.589-.058.548-.119 1.064-.15 1.551-.03.485-.061.884-.061 1.218 0 .487.031.882.06 1.186.061.305.151.548.244.733.122.151.275.305.458.363.183.092.426.154.699.185v.636c-.395.156-.853.249-1.308.336-.458.06-.945.124-1.403.124a4.256 4.256 0 01-1.279-.21l.702-4.54h-.032c-.304.759-.638 1.431-1.003 2.043-.397.603-.792 1.12-1.22 1.551-.395.424-.821.728-1.247.972-.427.217-.856.336-1.282.336-.333 0-.699-.12-1.003-.336-.336-.244-.64-.575-.913-1.035a6.57 6.57 0 01-.61-1.676c-.153-.667-.214-1.432-.214-2.316 0-1.58.183-2.952.61-4.196.425-1.22.973-2.256 1.707-3.108.698-.855 1.522-1.496 2.435-1.92a6.647 6.647 0 012.986-.672c.241 0 .487.03.79.03.275.03.579.06.883.12.276.03.58.091.885.153.272.03.548.12.791.183l-1.035 5.329c-.093.4-.183.855-.275 1.37m-2.07-5.45c-.305-.03-.58-.03-.795-.03-.638 0-1.215.149-1.763.485-.55.307-1.038.791-1.464 1.464-.394.64-.73 1.464-1.006 2.403-.24.977-.362 2.137-.362 3.413 0 .64.06 1.22.15 1.676.09.455.212.852.337 1.16.15.272.333.484.516.64a.853.853 0 00.548.212c.304 0 .672-.125 1.035-.4.365-.241.733-.641 1.067-1.157.336-.487.67-1.154.942-1.92.307-.788.551-1.704.734-2.74l.82-5.056a4.333 4.333 0 00-.76-.15m-14.996 10.937a14.222 14.222 0 001.522-2.284c.49-.853.884-1.708 1.22-2.592a17.17 17.17 0 00.792-2.677c.211-.884.304-1.707.304-2.499 0-.429-.093-.765-.304-1.008-.183-.273-.458-.484-.824-.667v-.49c.244-.151.548-.244.853-.331.304-.093.672-.125 1.035-.125.487 0 .884.151 1.189.424.304.28.458.733.458 1.4 0 .525-.061 1.128-.215 1.8a25.68 25.68 0 01-.67 2.193c-.275.76-.577 1.525-.974 2.316a21.39 21.39 0 01-1.218 2.316c-.426.731-.884 1.427-1.371 2.1-.487.64-.974 1.22-1.461 1.676-.305.275-.58.487-.824.64a4.39 4.39 0 01-.791.487h-.609l-1.25-13.708-1.31-.516v-.64c.487-.183.913-.308 1.281-.363.395-.06.792-.092 1.218-.092s.853.06 1.247.18l.673 12.46zm-11.078-.522c.092.125.121.276.121.46 0 .363-.121.697-.336 1.033a3.17 3.17 0 01-.942.855c-.397.244-.884.424-1.4.577a6.52 6.52 0 01-1.737.215c-.64 0-1.25-.095-1.769-.307-.548-.211-.974-.548-1.368-.971a5.189 5.189 0 01-.885-1.676c-.214-.641-.304-1.432-.304-2.346 0-1.707.183-3.195.58-4.447.394-1.279.881-2.316 1.49-3.169.64-.823 1.31-1.43 2.073-1.858.76-.392 1.493-.609 2.253-.609 1.035 0 1.858.244 2.406.797.548.516.853 1.308.853 2.343 0 .884-.212 1.705-.64 2.403a5.87 5.87 0 01-1.645 1.83c-.699.516-1.461.884-2.343 1.16a8.801 8.801 0 01-2.65.391c0 .916.061 1.676.18 2.285.122.58.276 1.035.52 1.403.243.336.518.577.852.702.336.119.73.182 1.188.182.273 0 .548-.03.884-.124.302-.06.638-.151.943-.305.304-.151.58-.302.852-.487.244-.18.458-.392.61-.612.06.06.153.156.214.276m-1.827-10.078c-.244-.305-.609-.458-1.038-.458-.333 0-.699.121-1.096.428-.365.273-.73.667-1.035 1.157a6.909 6.909 0 00-.82 1.856c-.215.699-.308 1.496-.308 2.375.67 0 1.31-.087 1.89-.276.578-.18 1.067-.423 1.49-.76.427-.336.734-.727.978-1.22.243-.485.336-1.003.336-1.583 0-.728-.125-1.218-.397-1.52m-12.7 12.67c-.243-.244-.365-.58-.365-1.036 0-.211 0-.484.032-.82.03-.336.06-.673.12-1.04.03-.392.092-.76.153-1.123.029-.397.06-.733.121-1.038l.975-6.184.153-1.795-1.83-.58v-.577a8.455 8.455 0 011.494-.4 8.87 8.87 0 011.554-.12c.273 0 .516 0 .73.03.244.03.427.06.641.151l-1.371 8.956c-.032.212-.06.485-.09.79-.032.306-.06.58-.093.883 0 .307-.029.58-.06.855v.728c0 .522.092.885.272 1.128.215.272.52.46.945.609v.516c-.336.156-.67.244-1.035.307-.365.092-.791.124-1.25.124-.486 0-.852-.124-1.095-.367m4.476-18.82c-.09.24-.211.423-.365.603-.15.156-.334.305-.548.4a1.617 1.617 0 01-.64.154c-.427 0-.76-.125-1.004-.397-.275-.244-.397-.612-.397-1.067 0-.24.032-.485.122-.733.124-.212.243-.423.397-.58.153-.18.333-.3.516-.424.214-.092.429-.148.673-.148.394 0 .73.148 1.003.423a1.5 1.5 0 01.397 1.033c0 .244-.06.519-.154.736m-14.274 4.629c.488-.18.975-.305 1.433-.397a8.454 8.454 0 011.522-.12c.212 0 .426.03.638.06.246.03.458.06.64.151l-.913 4.416h.032l1.612-2.679c.397-.64.823-1.128 1.218-1.432.429-.336.884-.487 1.342-.487.334 0 .58.09.76.307.153.18.243.455.243.82 0 .244-.029.517-.09.792-.06.275-.121.548-.243.791a1.247 1.247 0 00-.458-.092c-.151-.03-.334-.03-.487-.03-.487 0-.945.151-1.432.423-.456.276-.882.728-1.247 1.34-.366.609-.702 1.4-.945 2.377-.244 1.004-.395 2.195-.487 3.595l-.244 4.445h-2.528l1.493-13.128-1.859-.577zm-2.339 11.603c.093.124.122.275.122.46 0 .363-.122.697-.336 1.033a3.17 3.17 0 01-.943.855c-.397.244-.884.424-1.4.577a6.52 6.52 0 01-1.737.215c-.64 0-1.25-.096-1.768-.307-.548-.212-.974-.548-1.369-.972a5.189 5.189 0 01-.884-1.676c-.215-.64-.305-1.432-.305-2.345 0-1.708.183-3.195.58-4.447.395-1.279.882-2.317 1.49-3.17.641-.823 1.311-1.429 2.073-1.858.76-.391 1.49-.608 2.253-.608 1.035 0 1.859.244 2.407.797.548.516.852 1.307.852 2.342 0 .885-.214 1.705-.64 2.404a5.87 5.87 0 01-1.644 1.83c-.7.516-1.462.884-2.346 1.159a8.772 8.772 0 01-2.647.392c0 .916.058 1.676.18 2.284.122.58.275 1.035.519 1.404.243.336.519.577.852.701.336.12.73.183 1.189.183.272 0 .548-.03.884-.125.302-.06.638-.15.942-.304.305-.151.58-.302.853-.488.243-.18.458-.391.609-.611.06.06.153.156.214.275m-1.83-10.078c-.24-.304-.608-.457-1.034-.457-.334 0-.7.121-1.096.428-.366.272-.73.667-1.035 1.157a6.909 6.909 0 00-.821 1.856c-.214.698-.307 1.496-.307 2.374.67 0 1.31-.087 1.89-.275.577-.18 1.067-.423 1.49-.76a3.4 3.4 0 00.975-1.22c.246-.485.336-1.004.336-1.583 0-.728-.122-1.218-.397-1.52m-7.884-.398c-.394.305-1.067.456-2.041.456h-.852l-.52 3.169c-.058.367-.121.791-.211 1.252-.06.484-.122.94-.183 1.427-.06.49-.121.977-.153 1.4-.059.46-.059.823-.059 1.128 0 .516.059.945.18 1.313.122.362.276.636.487.879.215.249.458.43.734.548.301.092.609.156.942.156.246 0 .458 0 .64-.06.183-.03.366-.093.61-.149v.548c-.061.18-.183.36-.337.516-.18.18-.394.368-.638.487-.214.154-.518.241-.823.334-.304.096-.64.12-1.006.12-1.003 0-1.795-.3-2.314-.972-.487-.64-.76-1.551-.76-2.772 0-.452.03-1 .09-1.612.061-.609.122-1.252.212-1.92.061-.64.185-1.312.276-1.98.121-.672.243-1.313.365-1.892l.394-1.949c-.333 0-.638 0-.881-.03-.215 0-.517-.03-.824-.06v-.397c.49-.698 1.1-1.34 1.83-1.98a12.49 12.49 0 012.284-1.676h.456l-.517 2.497h.882c.426 0 .823-.03 1.189-.053.365-.03.73-.06 1.157-.156 0 .64-.183 1.128-.61 1.432m-8.444.756c-.121.305-.243.548-.397.733a5.25 5.25 0 00-1.583-1.096 4.135 4.135 0 00-1.737-.397c-.698 0-1.188.151-1.554.487-.333.305-.516.734-.516 1.22 0 .21.03.424.09.61.06.18.154.391.275.58.151.211.337.423.578.696.275.244.58.548.945.884l1.157 1.035c.368.336.67.641.945.916.243.273.426.577.577.853.153.275.275.547.336.823.06.305.093.609.093.945 0 .603-.122 1.154-.43 1.702a4.43 4.43 0 01-1.185 1.462c-.516.4-1.096.736-1.798.976-.67.244-1.4.363-2.224.363-.945 0-1.644-.151-2.102-.423a1.526 1.526 0 01-.67-1.308c0-.276.061-.522.154-.704.06-.212.183-.392.334-.58.429.431.884.736 1.371.948a4.016 4.016 0 001.583.336c.365 0 .702-.06 1.006-.156.336-.093.609-.244.853-.424.243-.185.426-.397.548-.64.121-.276.214-.548.214-.885 0-.243-.032-.487-.093-.698a2.11 2.11 0 00-.304-.673 4.042 4.042 0 00-.577-.727c-.247-.276-.548-.58-.914-.916l-1.098-.977c-.334-.331-.61-.604-.853-.88a3.207 3.207 0 01-.548-.82 3.091 3.091 0 01-.304-.823 4.248 4.248 0 01-.093-.916c0-.516.125-1.009.365-1.493.215-.456.551-.884.946-1.279a5.511 5.511 0 011.493-.913 5.733 5.733 0 011.948-.336c1.096 0 1.92.153 2.467.46.58.305.853.697.853 1.184 0 .272-.061.548-.151.852m-14.144 12.305c-.244-.244-.365-.58-.365-1.035 0-.212 0-.484.031-.82.03-.337.06-.673.12-1.041.03-.392.092-.76.153-1.123.029-.396.06-.733.121-1.037l.975-6.184.153-1.795-1.83-.58v-.577a8.454 8.454 0 011.494-.4 8.87 8.87 0 011.554-.12c.273 0 .519 0 .73.03.244.03.427.06.641.151l-1.371 8.956c-.03.212-.06.485-.09.789-.031.307-.06.58-.093.884 0 .307-.029.58-.06.855v.728c0 .522.092.884.272 1.128.215.272.52.46.945.608v.517c-.336.156-.67.244-1.035.307-.365.092-.791.124-1.25.124-.486 0-.852-.124-1.095-.368m4.476-18.82c-.09.241-.211.424-.365.604-.15.156-.334.304-.548.4a1.616 1.616 0 01-.638.154c-.429 0-.762-.125-1.006-.397-.275-.244-.397-.612-.397-1.067 0-.241.031-.485.122-.733.124-.212.243-.424.397-.58.153-.18.336-.3.516-.424.214-.092.426-.148.672-.148.395 0 .731.148 1.004.423.243.272.397.608.397 1.032 0 .244-.061.52-.154.736m-7.924 7.675c-.031.304-.092.64-.121.976-.061.331-.122.668-.154 1.036-.059.336-.09.667-.15 1.003l-.549 3.288c-.031.185-.031.368-.06.608-.032.217-.061.432-.093.673-.03.243-.061.455-.061.667-.03.25-.03.43-.03.58 0 .522.122.884.366 1.096.244.25.577.397 1.067.492v.517c-.336.18-.733.336-1.128.424-.397.092-.823.156-1.31.156s-.853-.125-1.096-.368c-.273-.244-.397-.58-.397-1.035 0-.185.031-.429.031-.702.03-.243.061-.548.093-.823.03-.305.09-.609.119-.884.032-.3.093-.574.122-.82l.58-3.503c.029-.241.06-.485.121-.76.032-.273.061-.548.093-.82.03-.276.06-.549.06-.792.03-.25.03-.493.03-.704 0-.336-.03-.609-.09-.853a2.155 2.155 0 00-.307-.58c-.12-.119-.273-.24-.426-.304a1.428 1.428 0 00-.517-.087c-.426 0-.884.18-1.37.579a5.433 5.433 0 00-1.34 1.612c-.427.667-.792 1.49-1.067 2.404-.305.948-.458 1.951-.487 3.015l-.183 5.15h-2.59l1.523-13.129-1.858-.58v-.577c.49-.182.976-.307 1.464-.4.455-.088 1.003-.12 1.55-.12.215 0 .398.03.61.06.214.03.429.053.64.149l-.974 4.66h.032c.333-.792.73-1.46 1.157-2.069.426-.608.852-1.127 1.34-1.556a5.633 5.633 0 011.46-.972 3.847 3.847 0 011.525-.336c.334 0 .668.06.943.18.304.125.548.307.762.525.212.24.395.548.517.879.121.336.185.765.185 1.22 0 .24 0 .516-.032.82m-17.25 11.153c-.243-.244-.365-.58-.365-1.035 0-.212 0-.484.032-.821.029-.336.058-.672.119-1.04.031-.392.092-.76.153-1.123.03-.397.06-.733.122-1.038l.974-6.184.154-1.795-1.83-.58v-.577a8.455 8.455 0 011.493-.4 8.87 8.87 0 011.554-.12c.273 0 .517 0 .731.03.244.03.426.06.64.152l-1.37 8.955c-.032.212-.061.485-.09.79l-.093.884c0 .307-.03.58-.061.855v.728c0 .521.093.884.273 1.127.214.273.519.461.945.609v.516c-.336.156-.67.244-1.035.307-.366.092-.792.125-1.25.125-.487 0-.852-.125-1.096-.368m4.477-18.82c-.09.24-.212.423-.366.603a1.79 1.79 0 01-.547.4 1.618 1.618 0 01-.641.154c-.426 0-.76-.124-1.003-.397-.276-.244-.398-.611-.398-1.067 0-.24.032-.485.122-.733.125-.212.244-.423.397-.58.154-.18.334-.3.516-.423.215-.093.43-.149.673-.149.394 0 .73.149 1.003.423a1.5 1.5 0 01.397 1.033c0 .244-.06.52-.153.736m-23.29 19.065c-.397.06-.852.092-1.31.092-.366 0-.731-.03-1.096-.092a7.98 7.98 0 01-1.006-.212v-.516c.243-.124.487-.275.67-.46.182-.183.336-.424.396-.7l3.807-16.291-1.644-.368v-.733c.183-.06.426-.087.7-.151.274-.03.547-.06.822-.092.273-.053.58-.088.853-.088.275-.03.519-.03.762-.03h1.006l2.68 14.528h.029l5.027-14.528h1.4c.273.03.52.03.792.06.243 0 .519.023.762.053.273.03.516.092.731.125v.727l-1.432.368.701 16.871 1.673.46v.61c-.455.15-.881.275-1.246.33a5.398 5.398 0 01-1.25.125c-.64 0-1.157-.03-1.554-.06-.394-.06-.792-.12-1.128-.244v-.516c.276-.125.52-.307.673-.548.182-.212.272-.58.272-1.035l-.182-13.496h-.03l-5.543 15.992-.913-.06-2.987-15.932h-.029l-2.925 14.343 1.737.492v.609c-.427.182-.853.3-1.218.362m108.34-35.14c-.154.15-.334.275-.519.39-.183.125-.365.25-.577.369-.183.124-.397.211-.58.304-.304-.211-.58-.485-.852-.789a4.688 4.688 0 01-.58-.98 3.51 3.51 0 01-.73.549 6.473 6.473 0 01-1.036.524c-.394.148-.792.3-1.25.392-.426.124-.884.156-1.37.156a5.257 5.257 0 01-1.735-.275c-.519-.217-.974-.49-1.34-.916-.365-.397-.64-.914-.852-1.552-.185-.64-.275-1.374-.275-2.253v-7.796l-1.737-.855v-.64a14.529 14.529 0 011.92-.43c.58-.12 1.066-.151 1.493-.151h1.003l-.183 1.707v6.884c0 .82.061 1.493.183 2.009.124.548.307.974.548 1.31.275.334.58.546.945.702.365.15.792.212 1.281.212.273 0 .548-.03.85-.094a3.85 3.85 0 00.824-.18c.243-.095.487-.182.73-.275.215-.092.397-.212.58-.336v-9.864l-1.766-.855v-.641a14.41 14.41 0 011.917-.43c.58-.119 1.098-.15 1.525-.15h1.003l-.183 1.707V98.35c.122.241.276.517.488.792.214.272.428.545.67.789-.122.124-.242.244-.395.367m-15.436-6.486h-8.985c0 .852.122 1.612.333 2.284.244.673.58 1.22.977 1.676.395.456.882.823 1.43 1.064a4.268 4.268 0 001.768.368c.366 0 .731-.03 1.125-.092.397-.06.763-.151 1.128-.276.397-.087.73-.24 1.096-.391.336-.186.67-.368.945-.548.03.052.061.18.09.33.032.157.032.305.032.461 0 .36-.122.697-.366 1.004a3.32 3.32 0 01-1.035.852c-.458.244-1.006.423-1.646.58-.67.149-1.4.212-2.192.212-.882 0-1.676-.151-2.436-.487a5.85 5.85 0 01-2.012-1.4 6.772 6.772 0 01-1.371-2.193 8.7 8.7 0 01-.487-2.896c0-1.308.185-2.496.55-3.531.363-1.004.853-1.856 1.46-2.56.579-.667 1.251-1.215 2.011-1.552a5.401 5.401 0 012.346-.547c.823 0 1.554.119 2.223.394.641.273 1.19.641 1.644 1.126a5.287 5.287 0 011.038 1.8c.241.73.363 1.49.363 2.374v.914c0 .307 0 .672-.03 1.035m-2.649-3.533c-.153-.548-.365-1.003-.64-1.371-.273-.366-.578-.641-.975-.82a2.713 2.713 0 00-1.218-.276c-.426 0-.823.119-1.25.362-.425.217-.79.553-1.095.945-.334.4-.58.887-.792 1.403a4.601 4.601 0 00-.304 1.705h6.518c0-.76-.09-1.4-.244-1.948m-11.753 10.6c-.275.06-.519.12-.823.15-.273.03-.577.06-.882.093-.336 0-.672.03-1.067.03-.333 0-.73-.03-1.128-.06-.426-.03-.82-.092-1.157-.212v-.516c.215-.06.398-.156.61-.275.182-.125.365-.244.518-.397.151-.12.276-.276.366-.456a.998.998 0 00.121-.516V88.425l-1.95-.823v-.641a13.742 13.742 0 012.011-.43 8.747 8.747 0 011.612-.15h.977l-.15 1.646V99.6l1.704.46v.578c-.275.088-.519.182-.762.244m-.58-18.428c-.09.211-.212.428-.363.58-.153.18-.336.305-.55.397-.212.12-.427.15-.67.15-.215 0-.426-.03-.64-.124a1.934 1.934 0 01-.517-.362 2.407 2.407 0 01-.334-.548 1.79 1.79 0 01-.124-.702c0-.243.032-.455.124-.667.061-.217.183-.4.334-.58.151-.185.336-.304.548-.397.214-.095.455-.15.73-.15.215 0 .427.03.612.119.18.06.363.185.517.336.15.124.243.304.333.516.093.186.125.429.125.673 0 .275-.032.516-.125.76m-7.427 18.425a8.22 8.22 0 01-.823.151c-.273.03-.577.06-.913.092-.305 0-.638.03-1.035.03-.366 0-.763-.03-1.157-.06-.397-.03-.792-.092-1.128-.211v-.516c.214-.06.397-.157.58-.276.211-.124.365-.244.516-.397.153-.12.275-.275.397-.455a.998.998 0 00.122-.517V81.052l-1.98-.823v-.672c.336-.088.701-.18 1.035-.241.336-.06.67-.12 1.006-.182.304-.03.609-.06.884-.093.273 0 .516-.03.73-.03h.975l-.154 1.708v18.883l1.708.46v.578c-.275.087-.519.182-.763.243m-7.975-.004c-.273.06-.52.12-.821.151-.275.03-.58.06-.884.093-.336 0-.67.03-1.067.03-.334 0-.73-.03-1.128-.06-.426-.03-.82-.093-1.157-.212v-.516c.215-.06.397-.156.61-.276.182-.124.364-.244.518-.397.15-.119.275-.275.365-.455a.998.998 0 00.122-.516V88.425l-1.951-.824v-.64a13.672 13.672 0 012.012-.43 8.748 8.748 0 011.612-.15h.977l-.15 1.646v11.572l1.704.46v.578c-.275.087-.519.182-.762.244m-.58-18.428c-.09.211-.212.428-.363.58-.153.18-.336.304-.55.397-.212.119-.427.15-.67.15-.212 0-.427-.03-.641-.124a1.934 1.934 0 01-.516-.362 2.408 2.408 0 01-.334-.548 1.79 1.79 0 01-.124-.702c0-.244.031-.455.124-.667.061-.217.183-.4.334-.58.15-.186.336-.305.548-.397.214-.095.455-.151.73-.151.215 0 .427.03.612.12.18.06.363.185.516.336.151.124.244.304.334.516.092.185.124.428.124.672 0 .276-.031.516-.124.76m-7.907 18.608c-.518.06-1.067.124-1.646.124-.363 0-.67 0-.974-.03-.273 0-.548-.03-.821-.03-.275-.03-.519-.06-.763-.092-.272-.03-.516-.087-.791-.148v-.58c1.25-.305 1.858-1.067 1.797-2.317l-.762-13.827h-.06l-5.423 16.903-1.188.156-5.48-17.028-.032.03-.945 15.257 1.98.519v.672c-.333.087-.638.18-.881.241-.276.06-.548.12-.792.15a3.92 3.92 0 01-.855.093c-.273.03-.609.03-.974.03-.334 0-.73-.03-1.157-.092a14.77 14.77 0 01-1.186-.212v-.548c.577-.188 1.003-.4 1.276-.672.307-.307.487-.667.519-1.128l1.342-15.564-1.768-.516v-.884c.333-.03.701-.087 1.067-.12.365-.03.73-.03 1.096-.06.365 0 .73-.03 1.066-.03h2.01l4.78 14.773h.032l4.628-14.772h1.31c.548 0 1.16 0 1.798.03.64.03 1.279.095 1.887.182v.884l-1.887.456 1.34 16.752 1.768.336v.672c-.366.18-.794.3-1.31.392m-31.637.09c-.304 0-.64-.03-1.006-.06a3.566 3.566 0 01-.974-.215v-.516c.397-.185.67-.397.824-.733.182-.305.275-.731.275-1.279v-5.816c0-.733-.093-1.369-.215-1.888-.153-.547-.365-.976-.64-1.28a2.388 2.388 0 00-.943-.732c-.397-.154-.791-.211-1.25-.211-.608 0-1.217.09-1.765.275-.58.18-1.035.423-1.371.667v10.232l1.705.46v.58c-.273.088-.52.181-.763.242a8.31 8.31 0 01-.82.15c-.276.03-.58.06-.914.093-.304 0-.64.03-1.035.03-.365 0-.762-.03-1.16-.06a4.426 4.426 0 01-1.124-.215v-.516a2.09 2.09 0 00.577-.272c.214-.125.365-.243.519-.4.153-.12.272-.273.394-.456a.992.992 0 00.122-.516V88.422l-1.978-.82v-.673a13.467 13.467 0 012.01-.429c.64-.087 1.188-.119 1.643-.119h.731v1.644c.519-.516 1.189-.945 1.98-1.247a7.028 7.028 0 012.528-.46c.641 0 1.22.095 1.737.306.519.212.974.517 1.34.914.365.394.67.884.884 1.464.183.606.304 1.307.304 2.067v8.527l1.584.461v.58c-.853.331-1.92.516-3.198.516m-13.608-7.342h-8.985c0 .853.121 1.613.333 2.285.244.672.58 1.22.977 1.676.394.455.881.823 1.43 1.064a4.268 4.268 0 001.768.368c.365 0 .73-.03 1.125-.093.397-.06.762-.15 1.128-.275.397-.087.73-.24 1.096-.392.336-.185.67-.367.945-.548.03.053.06.18.09.331.031.156.031.305.031.461 0 .36-.121.697-.365 1.003-.243.305-.58.609-1.035.853-.458.244-1.006.423-1.647.58-.67.148-1.4.212-2.192.212-.881 0-1.675-.151-2.435-.487a5.85 5.85 0 01-2.012-1.4 6.77 6.77 0 01-1.371-2.193 8.7 8.7 0 01-.487-2.896c0-1.308.185-2.496.55-3.532.363-1.003.853-1.855 1.461-2.56.578-.667 1.25-1.215 2.01-1.55a5.401 5.401 0 012.345-.549c.824 0 1.554.12 2.224.395.64.272 1.189.64 1.644 1.125a5.286 5.286 0 011.038 1.8c.24.731.363 1.49.363 2.375v.913c0 .307 0 .673-.03 1.035m-2.65-3.532c-.153-.548-.365-1.004-.64-1.371-.273-.366-.577-.641-.974-.821-.365-.185-.792-.276-1.218-.276s-.823.12-1.25.363c-.426.217-.791.553-1.095.945-.334.4-.58.887-.792 1.403a4.601 4.601 0 00-.304 1.705h6.517c0-.76-.09-1.4-.243-1.949m426.97-23.997c-.336.212-.731.456-1.157.67a5.764 5.764 0 01-.853-.852 6.724 6.724 0 01-.609-.974c-.243.24-.518.485-.855.699a5.863 5.863 0 01-.974.547 6.903 6.903 0 01-1.064.366 4.09 4.09 0 01-1.006.124c-.762 0-1.49-.154-2.163-.457-.67-.305-1.25-.763-1.766-1.31-.487-.581-.884-1.28-1.188-2.1a8.675 8.675 0 01-.427-2.743c0-1.371.183-2.589.58-3.627.397-1.064.914-1.948 1.583-2.647a6.244 6.244 0 012.317-1.647 7.164 7.164 0 012.798-.548c.368 0 .733.03 1.128.06.394.03.733.09.974.151v-5.36l-2.07-.824v-.667c.701-.215 1.4-.336 2.07-.428.701-.06 1.25-.12 1.707-.12h.975l-.183 1.705v17.451c.124.305.273.609.458.916.183.302.394.606.699.852a12.03 12.03 0 01-.974.76m-2.65-12.456c-.244-.092-.58-.156-1.006-.246a8.008 8.008 0 00-1.218-.09c-.638 0-1.25.122-1.798.395-.548.244-1.035.64-1.461 1.157-.397.518-.702 1.156-.945 1.948-.212.794-.334 1.708-.334 2.772 0 .823.093 1.556.305 2.194.214.638.487 1.186.823 1.618.334.423.702.76 1.157.972.426.24.884.336 1.369.336.304 0 .58-.03.884-.06.304-.06.58-.122.852-.212.276-.092.52-.182.76-.305.246-.121.429-.243.612-.397zm-12.208 12.64c-.276.06-.52.124-.826.153-.273.03-.575.06-.882.093-.334 0-.667.03-1.067.03-.333 0-.728-.03-1.125-.06-.426-.03-.823-.09-1.157-.215v-.516c.212-.06.395-.151.606-.276a3.36 3.36 0 00.522-.395c.15-.121.273-.275.363-.457a.989.989 0 00.122-.519V54.008l-1.949-.823v-.641a13.18 13.18 0 012.012-.423 8.379 8.379 0 011.612-.156h.975l-.151 1.649v11.574l1.705.453v.579c-.273.092-.517.185-.76.244m-.58-18.425a1.883 1.883 0 01-.365.577 1.393 1.393 0 01-.548.397c-.215.121-.43.154-.67.154-.212 0-.429-.03-.64-.122a2.042 2.042 0 01-.52-.368 2.295 2.295 0 01-.333-.547 1.75 1.75 0 01-.122-.699c0-.244.03-.458.122-.67.06-.212.183-.397.333-.58a1.47 1.47 0 01.548-.397c.215-.09.458-.151.734-.151.214 0 .426.03.609.121.18.06.365.183.516.337.153.121.243.301.336.516.09.182.122.426.122.67 0 .272-.032.516-.122.762m-6.908 11.357h-8.982c0 .853.12 1.615.334 2.285a5.28 5.28 0 00.974 1.676c.397.458.884.823 1.432 1.064a4.22 4.22 0 001.766.366c.365 0 .73-.03 1.125-.09.4-.06.762-.154 1.128-.276.397-.09.733-.24 1.096-.394.336-.18.672-.368.947-.548.027.06.059.18.09.336.032.15.032.305.032.455 0 .366-.122.7-.368 1.006a3.32 3.32 0 01-1.035.853c-.458.244-1.006.426-1.644.58-.673.15-1.4.212-2.195.212-.881 0-1.676-.154-2.435-.49a5.863 5.863 0 01-2.012-1.398 6.778 6.778 0 01-1.37-2.195 8.603 8.603 0 01-.486-2.89c0-1.314.182-2.5.548-3.538.365-1.003.852-1.855 1.461-2.557.58-.67 1.25-1.218 2.012-1.554a5.433 5.433 0 012.343-.548c.823 0 1.554.125 2.224.4.64.273 1.188.636 1.646 1.123a5.365 5.365 0 011.036 1.797c.243.733.365 1.496.365 2.377v.911c0 .307 0 .673-.032 1.038m-2.65-3.534c-.153-.548-.365-1.004-.638-1.372-.275-.362-.58-.637-.974-.82a2.783 2.783 0 00-1.218-.276c-.426 0-.823.125-1.25.368-.426.212-.793.548-1.095.943-.336.397-.58.881-.794 1.403a4.597 4.597 0 00-.305 1.702h6.52c0-.76-.092-1.4-.246-1.949m-12.386 10.755c-.548.06-1.128.12-1.797.12-.305 0-.64-.03-.975-.06a3.211 3.211 0 01-.974-.215v-.518c.366-.18.638-.395.824-.728.182-.305.272-.736.272-1.284v-5.816c0-.728-.06-1.37-.214-1.888-.151-.548-.366-.974-.61-1.279a2.513 2.513 0 00-.973-.73c-.395-.151-.821-.215-1.31-.215-.273 0-.58.03-.882.06-.273.06-.58.12-.824.211-.275.093-.518.18-.76.305a9.21 9.21 0 00-.61.365V65.18l1.707.456v.58c-.276.092-.52.182-.763.243-.275.06-.519.122-.823.154-.275.03-.577.06-.882.09-.336 0-.67.03-1.067.03-.333 0-.73-.03-1.127-.06-.424-.03-.824-.092-1.157-.215v-.518c.211-.06.397-.149.609-.273.182-.121.368-.243.518-.396.154-.122.276-.273.366-.458.09-.149.121-.336.121-.517V46.63l-1.98-.82v-.67a13.422 13.422 0 011.949-.429c.609-.06 1.188-.12 1.707-.12h.974l-.153 1.706v7.277a6.332 6.332 0 011.922-1.247c.696-.275 1.551-.429 2.496-.429.638 0 1.25.092 1.766.307a3.79 3.79 0 011.34.91c.368.4.67.885.852 1.465.214.611.304 1.308.304 2.07v8.53l1.586.455v.58c-.426.182-.916.304-1.432.396m-16.38-.33c-.336.212-.73.456-1.157.67a5.904 5.904 0 01-.855-.852 6.93 6.93 0 01-.606-.974 5.12 5.12 0 01-.855.699 5.865 5.865 0 01-.975.548 6.904 6.904 0 01-1.064.365 4.09 4.09 0 01-1.006.125c-.762 0-1.49-.154-2.163-.458-.67-.305-1.25-.762-1.765-1.31-.488-.58-.885-1.28-1.19-2.1a8.674 8.674 0 01-.425-2.743c0-1.37.182-2.589.58-3.626.397-1.065.913-1.949 1.583-2.648a6.244 6.244 0 012.316-1.646 7.164 7.164 0 012.798-.548c.368 0 .733.03 1.128.06.397.03.733.09.974.15v-5.36l-2.07-.823v-.668c.702-.214 1.4-.336 2.07-.428.702-.06 1.25-.12 1.708-.12h.974l-.183 1.705V63.75c.122.305.273.61.458.916.183.302.395.607.7.853-.305.272-.639.516-.975.76m-2.65-12.456c-.244-.093-.58-.156-1.006-.247a8.008 8.008 0 00-1.218-.09c-.638 0-1.25.122-1.797.395-.548.244-1.036.641-1.462 1.157-.397.519-.699 1.157-.945 1.948-.212.795-.333 1.708-.333 2.772 0 .823.09 1.557.304 2.195.215.638.487 1.186.823 1.617.334.424.702.76 1.157.972.427.24.884.336 1.369.336.304 0 .58-.03.884-.06.305-.06.58-.121.853-.212.275-.092.518-.182.762-.304s.426-.243.609-.397zm-14.702 12.913c-.305 0-.64-.03-1.006-.06a3.365 3.365 0 01-.974-.217v-.516c.394-.18.67-.395.823-.728.183-.305.273-.737.273-1.284v-5.816c0-.728-.09-1.37-.215-1.888-.153-.548-.365-.974-.638-1.279a2.48 2.48 0 00-.945-.733 3.432 3.432 0 00-1.247-.212c-.611 0-1.22.096-1.768.276a4.752 4.752 0 00-1.372.67v10.235l1.708.455v.58c-.275.093-.519.183-.762.241-.276.06-.551.125-.824.156-.275.03-.577.06-.913.09-.305 0-.638.03-1.035.03-.365 0-.76-.03-1.157-.06-.395-.03-.794-.092-1.128-.216v-.517a1.96 1.96 0 00.58-.272c.212-.121.365-.243.516-.397.154-.121.275-.272.397-.458.09-.148.122-.336.122-.516V54.005l-1.98-.82v-.673a13.213 13.213 0 012.01-.423c.64-.093 1.188-.125 1.646-.125h.73v1.647c.517-.52 1.186-.942 1.98-1.25a7.015 7.015 0 012.529-.457c.638 0 1.218.092 1.734.307.519.214.974.516 1.34.91.367.4.672.885.883 1.464.183.612.305 1.308.305 2.07v8.53l1.586.456v.58c-.853.336-1.922.516-3.198.516m-14.098-4.566c-.397 1.003-.914 1.856-1.586 2.589-.67.699-1.43 1.247-2.282 1.612a6.44 6.44 0 01-2.65.58c-.916 0-1.798-.154-2.59-.49a5.798 5.798 0 01-2.13-1.368c-.58-.58-1.067-1.34-1.432-2.195-.337-.884-.52-1.856-.52-2.983 0-1.25.215-2.378.58-3.381a8.486 8.486 0 011.584-2.59 7.635 7.635 0 012.284-1.646 6.401 6.401 0 012.711-.577c.945 0 1.795.182 2.618.516.824.336 1.525.794 2.102 1.433.61.611 1.067 1.342 1.4 2.192.369.884.52 1.831.52 2.896 0 1.25-.183 2.403-.61 3.412m-2.496-5.514a5.879 5.879 0 00-.884-1.734c-.397-.461-.823-.824-1.308-1.07a3.471 3.471 0 00-1.554-.362c-.519 0-1.038.148-1.525.394a3.721 3.721 0 00-1.34 1.157 5.654 5.654 0 00-.944 1.92c-.244.762-.366 1.644-.366 2.65 0 .913.122 1.734.334 2.403.214.704.521 1.282.884 1.769.397.455.823.823 1.313 1.067.485.211 1 .336 1.549.336.521 0 1.006-.125 1.527-.368.485-.244.943-.638 1.337-1.16.397-.484.702-1.124.945-1.916.244-.76.366-1.676.366-2.71 0-.885-.122-1.674-.334-2.376m-12.697 9.806h-10.385l-.246-.456 7.494-12.18h-3.563c-.609 0-1.067.116-1.432.36-.365.215-.609.548-.76.948l-.275.76h-.916l.336-3.807 9.748.03.243.548-7.402 12.09h3.749c.394 0 .728-.03 1.003-.09.305-.03.519-.125.73-.215.183-.09.337-.214.459-.333a3.02 3.02 0 00.333-.518l.49-1.006h.82zm-12.42-7.066h-8.985c0 .853.122 1.615.334 2.285.246.67.58 1.218.977 1.676.397.457.884.823 1.432 1.064a4.22 4.22 0 001.766.365c.365 0 .73-.03 1.125-.09.4-.06.762-.154 1.127-.275.398-.09.731-.24 1.096-.395.337-.18.673-.367.948-.548.026.06.059.18.09.337.032.15.032.304.032.455 0 .366-.122.699-.368 1.006a3.319 3.319 0 01-1.035.853c-.458.243-1.006.426-1.644.58-.673.15-1.4.211-2.195.211-.882 0-1.676-.154-2.436-.49a5.863 5.863 0 01-2.012-1.398 6.779 6.779 0 01-1.368-2.194 8.602 8.602 0 01-.487-2.891c0-1.313.182-2.5.548-3.537.365-1.003.855-1.856 1.461-2.557.58-.67 1.25-1.218 2.012-1.554a5.436 5.436 0 012.346-.548c.82 0 1.55.124 2.22.4.641.272 1.19.635 1.645 1.122a5.328 5.328 0 011.038 1.798c.243.733.365 1.496.365 2.377v.91c0 .308 0 .673-.032 1.039m-2.65-3.535c-.153-.547-.365-1.003-.638-1.37-.275-.363-.58-.639-.974-.822a2.783 2.783 0 00-1.218-.275c-.426 0-.823.125-1.25.368-.426.211-.794.548-1.095.942-.337.397-.58.882-.795 1.403a4.597 4.597 0 00-.304 1.703h6.52c0-.76-.092-1.4-.246-1.949m-10.194-1.918c-.49-.12-1.006-.18-1.554-.244-.548-.06-1.096-.09-1.705-.09v.03c.241.185.485.428.7.672.21.243.396.516.547.789.154.307.276.611.365.916.061.333.122.638.122.945 0 .881-.182 1.67-.516 2.406a6.09 6.09 0 01-1.34 1.888 6.575 6.575 0 01-1.98 1.218 6.731 6.731 0 01-2.345.426c-.336 0-.67-.03-1.006-.09a3.63 3.63 0 01-.884-.278.94.94 0 00-.334.278c-.122.09-.214.212-.336.362-.09.122-.153.244-.212.4-.06.149-.092.273-.092.424 0 .458.182.821.518 1.038.366.241.824.363 1.43.363l4.265-.03c1.281 0 2.284.24 2.957.82.699.58 1.032 1.464 1.032 2.592 0 .728-.182 1.4-.577 2.07-.365.638-.881 1.186-1.554 1.676-.67.487-1.43.881-2.345 1.157a10.23 10.23 0 01-2.952.43c-.974 0-1.8-.094-2.528-.276-.734-.186-1.343-.429-1.83-.763a3.242 3.242 0 01-1.096-1.127 2.803 2.803 0 01-.365-1.404c0-.394.06-.788.214-1.154.151-.336.363-.672.607-.977.275-.275.58-.547.916-.76.362-.211.73-.367 1.157-.486v-.03c-.551-.215-1.006-.487-1.31-.914-.337-.397-.488-.884-.488-1.461 0-.305.06-.58.183-.853a2.07 2.07 0 01.458-.794c.182-.244.426-.487.67-.667.24-.185.516-.336.82-.428v-.03a3.421 3.421 0 01-1.006-.607 3.626 3.626 0 01-.881-.913 5.236 5.236 0 01-.61-1.252 4.534 4.534 0 01-.243-1.459c0-.855.154-1.647.487-2.377a5.919 5.919 0 011.279-1.92 6.02 6.02 0 011.948-1.278 6.144 6.144 0 012.346-.458c.304 0 .64.03.974.092.336.06.64.151.945.244.305.093.577.183.824.305.243.121.426.243.548.365.153-.121.304-.243.518-.365.212-.122.427-.212.668-.305.243-.092.49-.154.733-.211.273-.06.516-.093.76-.093.246 0 .519.03.73.06.244.03.427.06.58.122zm-3.169 14.134c-.397-.334-.945-.49-1.675-.49H446a2.58 2.58 0 00-.61.4c-.182.18-.364.362-.489.577-.15.214-.24.455-.333.698-.093.244-.12.517-.12.763 0 .333.09.608.241.881.154.305.427.548.734.736.333.212.728.392 1.217.517a7.25 7.25 0 001.705.18c.728 0 1.372-.09 1.978-.243a7.579 7.579 0 001.525-.641c.426-.273.73-.574.977-.94.212-.336.33-.704.33-1.067 0-.58-.182-1.038-.576-1.371m-1.282-12.702a3.696 3.696 0 00-.67-1.189c-.272-.301-.606-.519-.974-.698a2.954 2.954 0 00-1.154-.215c-.426 0-.855.09-1.25.305-.368.185-.701.49-1.006.855-.272.362-.516.82-.698 1.34a6.511 6.511 0 00-.244 1.794c0 .641.09 1.22.244 1.676.15.49.362.884.638 1.189.272.304.608.547.942.701.368.151.733.244 1.099.244a3.73 3.73 0 001.307-.244 2.863 2.863 0 001.038-.794 3.65 3.65 0 00.702-1.371c.18-.548.273-1.186.273-1.917 0-.64-.093-1.189-.247-1.676m-11.142 8.771a4.574 4.574 0 01-1.154 1.4c-.49.427-1.099.763-1.797 1.007-.673.244-1.464.365-2.317.365-1.34 0-2.314-.211-2.925-.638-.638-.4-.943-1.037-.943-1.86 0-.212.032-.427.061-.668.061-.211.122-.397.212-.58.67.641 1.371 1.128 2.041 1.432.699.336 1.432.487 2.253.487.855 0 1.493-.182 1.951-.55.426-.363.64-.79.64-1.337 0-.276-.03-.519-.124-.734-.09-.214-.243-.426-.423-.637-.215-.212-.49-.397-.826-.609a9.547 9.547 0 00-1.247-.612l-1.525-.637c-.879-.366-1.551-.882-2.038-1.523-.458-.64-.702-1.371-.702-2.255 0-.609.122-1.186.365-1.705a4.593 4.593 0 011.099-1.43 5.24 5.24 0 011.673-.977c.64-.24 1.371-.365 2.163-.365.611 0 1.128.06 1.554.154.426.06.791.211 1.067.362.272.156.487.368.609.58.121.247.18.519.18.795 0 .24 0 .455-.026.637-.032.212-.093.427-.122.641a6.691 6.691 0 00-1.676-.823c-.611-.215-1.22-.336-1.8-.336-.485 0-.91.06-1.276.154-.368.09-.64.244-.884.397-.244.18-.427.394-.548.608-.09.243-.154.487-.154.728 0 .275.032.519.09.733.095.246.214.426.4.609.18.211.423.397.728.548.304.185.701.333 1.16.516l1.643.64a8.597 8.597 0 011.4.702c.369.244.702.52.946.824.214.333.394.67.519 1.035.09.365.15.789.15 1.22 0 .575-.121 1.155-.397 1.703m-11.236 2.437c-.365.09-.76.151-1.217.151-.427 0-.824-.09-1.186-.275-.368-.18-.673-.485-.975-.882l-4.966-6.547v6.153l1.583.485v.58c-.273.092-.548.18-.82.211a6.48 6.48 0 01-.792.156c-.278.06-.55.09-.853.09-.275.03-.611.03-.976.03-.334 0-.731-.03-1.126-.06-.426-.03-.823-.09-1.16-.214v-.517c.215-.06.427-.15.612-.275.212-.122.363-.24.517-.395.153-.121.275-.275.394-.458a.986.986 0 00.122-.516V46.637l-2.007-.823v-.67c.699-.215 1.4-.336 2.038-.429.639-.06 1.186-.12 1.613-.12h1.037l-.182 1.708v12.183l1.673-1.464c.397-.365.823-.73 1.191-1.16.363-.422.699-.849 1.006-1.275.273-.426.516-.884.67-1.282.18-.426.273-.82.273-1.154.275-.092.548-.156.791-.185.244-.03.516-.06.82-.06.244 0 .459.03.644.06.18.06.394.122.575.215 0 .334-.122.698-.273 1.096a6.771 6.771 0 01-.76 1.34c-.336.455-.792.944-1.281 1.434-.516.485-1.125 1-1.827 1.488l-1.064.762 4.688 5.697c.426.517.824.885 1.218 1.125.368.212.73.337 1.038.337v.638a3.937 3.937 0 01-1.038.49m-15.41-.126c-.275.06-.548.125-.823.154-.273.03-.575.06-.91.092-.308 0-.639.03-1.039.03-.365 0-.76-.03-1.154-.06-.397-.03-.794-.09-1.128-.214v-.517c.212-.06.395-.15.58-.275.212-.122.363-.244.516-.395.154-.121.273-.275.395-.458.09-.15.121-.336.121-.518V46.638l-1.98-.823v-.67c.336-.092.702-.182 1.038-.243.336-.06.67-.124 1.006-.185l.881-.087c.273 0 .52-.03.731-.03h.974l-.15 1.707V65.19l1.704.453v.579c-.272.092-.516.185-.762.244m-8.017-4.296c-.395 1.003-.913 1.856-1.586 2.59-.67.698-1.43 1.246-2.282 1.611a6.44 6.44 0 01-2.65.58c-.916 0-1.797-.154-2.589-.49a5.798 5.798 0 01-2.131-1.368c-.58-.58-1.067-1.34-1.432-2.195-.336-.884-.516-1.856-.516-2.983 0-1.25.211-2.378.577-3.381a8.486 8.486 0 011.583-2.59 7.635 7.635 0 012.284-1.646 6.401 6.401 0 012.711-.577c.945 0 1.795.182 2.618.516.824.337 1.525.795 2.102 1.433.61.611 1.067 1.342 1.4 2.192.369.884.52 1.831.52 2.896 0 1.25-.183 2.403-.61 3.412m-2.496-5.514a5.817 5.817 0 00-.884-1.734c-.397-.461-.823-.824-1.308-1.07a3.471 3.471 0 00-1.554-.362c-.519 0-1.038.148-1.525.395a3.721 3.721 0 00-1.34 1.156 5.654 5.654 0 00-.944 1.92c-.244.762-.366 1.644-.366 2.65 0 .913.122 1.734.334 2.403.214.704.521 1.282.884 1.769.397.455.823.823 1.313 1.067a3.854 3.854 0 001.552.336c.518 0 1.003-.125 1.525-.368.484-.244.942-.638 1.34-1.16.393-.484.698-1.124.942-1.916.243-.76.365-1.676.365-2.71 0-.885-.122-1.674-.334-2.376m-11.663-8.193c-.275.304-.487.791-.701 1.4l-5.39 16.781-1.218.09-5.97-18.21-1.646-.52v-.637c.521-.154 1.037-.305 1.495-.368a8.411 8.411 0 011.522-.121h.728c.215 0 .43.03.644.03l.638.09c.243.06.487.093.794.154v.58c-.49.121-.826.362-.948.698-.15.337-.15.734 0 1.19l3.656 12.487h.032l3.958-13.554-1.92-.516v-.638a10.648 10.648 0 011.644-.4c.548-.09 1.099-.122 1.647-.122.397 0 .76.03 1.067.06.336.06.67.154 1.006.247v.577a2.501 2.501 0 00-1.038.701m-21.16 5.575c-.09.337-.214.638-.368.914a3.28 3.28 0 00-.91-.519 2.827 2.827 0 00-.978-.182c-.942 0-1.826.426-2.679 1.25v9.686l2.102.456v.58a5.585 5.585 0 01-.791.24c-.244.06-.516.125-.824.157-.304.03-.64.06-.974.09-.368 0-.762.03-1.188.03-.456 0-.882-.03-1.28-.06-.425-.03-.822-.09-1.156-.215v-.516c.212-.06.394-.151.58-.276.212-.119.363-.24.516-.394.154-.122.275-.273.394-.458.093-.149.122-.336.122-.516V54.009l-1.98-.821v-.672a13.317 13.317 0 012.012-.424 11.48 11.48 0 011.644-.124h.733v2.134h.03l.855-.946c.394-.455.85-.791 1.276-1.003a3.052 3.052 0 011.4-.336c1.07 0 1.586.423 1.586 1.308 0 .275-.032.58-.122.916m-12.037 8.13c-.394 1.003-.913 1.856-1.586 2.59-.67.698-1.43 1.246-2.282 1.611a6.44 6.44 0 01-2.65.58c-.916 0-1.797-.154-2.589-.49a5.798 5.798 0 01-2.131-1.368c-.58-.58-1.067-1.34-1.432-2.195-.336-.884-.52-1.856-.52-2.983 0-1.25.215-2.378.58-3.381a8.486 8.486 0 011.584-2.59 7.635 7.635 0 012.284-1.646 6.401 6.401 0 012.711-.577c.945 0 1.795.182 2.618.516.824.337 1.525.795 2.102 1.433.61.611 1.067 1.342 1.4 2.192.369.884.52 1.831.52 2.896 0 1.25-.183 2.403-.61 3.412m-2.496-5.514a5.814 5.814 0 00-.884-1.734c-.397-.461-.823-.824-1.308-1.07a3.471 3.471 0 00-1.554-.362c-.519 0-1.038.148-1.525.395a3.721 3.721 0 00-1.34 1.156 5.653 5.653 0 00-.944 1.92c-.244.762-.366 1.644-.366 2.65 0 .913.122 1.734.334 2.403.214.704.522 1.282.884 1.769.397.455.823.823 1.313 1.067.485.211 1.001.336 1.549.336.521 0 1.006-.125 1.527-.368.485-.244.943-.638 1.337-1.16.397-.484.702-1.124.945-1.916.244-.76.366-1.676.366-2.71 0-.885-.122-1.674-.334-2.376m-13.61 5.514c-.394 1.003-.913 1.856-1.586 2.59-.67.698-1.43 1.246-2.282 1.611a6.44 6.44 0 01-2.65.58c-.913 0-1.797-.153-2.589-.49a5.852 5.852 0 01-2.134-1.368c-.577-.58-1.064-1.34-1.43-2.195-.333-.884-.518-1.856-.518-2.983 0-1.25.214-2.378.577-3.381.4-1.006.948-1.887 1.586-2.59a7.635 7.635 0 012.285-1.646c.852-.395 1.765-.577 2.71-.577s1.795.182 2.619.516c.823.337 1.525.795 2.102 1.433.609.611 1.067 1.342 1.4 2.192.368.884.519 1.832.519 2.896 0 1.25-.183 2.404-.609 3.412m-2.496-5.514a5.813 5.813 0 00-.884-1.734c-.398-.46-.824-.823-1.31-1.07a3.452 3.452 0 00-1.552-.362c-.522 0-1.038.148-1.525.395a3.743 3.743 0 00-1.34 1.156 5.606 5.606 0 00-.945 1.92c-.243.762-.365 1.644-.365 2.65 0 .913.122 1.734.334 2.404.214.703.518 1.28.884 1.768.397.455.823.823 1.31 1.067a3.874 3.874 0 001.551.336c.522 0 1.006-.124 1.528-.368.484-.244.942-.638 1.337-1.16.397-.484.701-1.124.945-1.916.244-.76.365-1.676.365-2.71 0-.885-.121-1.674-.333-2.375m-12.635-3.261l-5.39 13.433-1.065.06-5.151-13.313-1.244-.882v-.733h5.784v.733l-1.737.731 3.32 9.655h.03l3.383-9.562-1.769-.823v-.733h4.723v.733zM304.613 66.86c-1.22 0-2.137-.336-2.743-1.006-.58-.67-.882-1.734-.882-3.23 0-.728 0-1.49.03-2.253.029-.791.029-1.522.06-2.223l.09-4.048h-1.675v-1.009l3.29-3.259 1.006-.12-.122 2.74h4.022l-.215 1.647h-3.9l-.06 3.836c0 .638-.029 1.25-.029 1.856V61.5c0 .608.03 1.125.12 1.554.092.426.214.762.399 1.035.148.244.336.423.577.548.212.121.487.182.76.182.458 0 .855-.06 1.25-.212a4.168 4.168 0 001.005-.58l.305.122c-.125 1.795-1.22 2.71-3.288 2.71m-7.942-.975c-.156.156-.337.275-.52.397-.185.121-.365.243-.576.365-.186.122-.397.215-.58.305a5.168 5.168 0 01-.853-.791 4.49 4.49 0 01-.58-.975 3.79 3.79 0 01-.73.548 6.59 6.59 0 01-1.038.52c-.394.15-.791.304-1.247.394-.429.122-.881.154-1.371.154a5.17 5.17 0 01-1.734-.275c-.519-.212-.977-.485-1.34-.916-.368-.392-.64-.91-.852-1.552-.185-.64-.275-1.368-.275-2.252v-7.797l-1.737-.855v-.64c.699-.212 1.34-.334 1.917-.424a6.928 6.928 0 011.495-.154h1.004l-.183 1.705v6.886c0 .82.06 1.49.183 2.006.124.551.304.98.548 1.313.273.334.58.551.945.699.365.154.791.215 1.279.215.272 0 .548-.03.852-.09.273-.03.548-.093.82-.186.244-.087.488-.182.734-.275.214-.087.394-.212.58-.333v-9.867l-1.766-.855v-.641a13.7 13.7 0 011.917-.423 7.17 7.17 0 011.522-.154h1.006l-.183 1.705v10.296c.122.243.273.518.49.791.212.276.424.551.664.795-.116.119-.24.243-.391.362m-16.014 0a3.053 3.053 0 01-.52.396c-.182.122-.362.244-.576.366-.183.121-.397.214-.58.305a5.167 5.167 0 01-.853-.792 4.598 4.598 0 01-.58-.974 3.79 3.79 0 01-.73.548 6.677 6.677 0 01-1.035.519c-.397.15-.792.305-1.25.395-.426.121-.884.154-1.37.154a5.17 5.17 0 01-1.735-.276c-.519-.212-.974-.485-1.34-.916-.365-.392-.64-.91-.855-1.551-.18-.641-.272-1.369-.272-2.253V54.01l-1.737-.856v-.64c.702-.212 1.34-.334 1.92-.424a6.921 6.921 0 011.493-.154h1.003l-.183 1.705v6.886c0 .82.061 1.49.183 2.007.124.55.304.98.548 1.313.275.333.58.55.945.698.365.154.792.215 1.279.215.275 0 .55-.03.852-.09.275-.03.548-.092.823-.185.244-.087.488-.183.731-.276.215-.087.397-.211.58-.333v-9.867l-1.766-.855v-.64c.699-.212 1.34-.334 1.917-.424a7.193 7.193 0 011.525-.154h1.003l-.183 1.705v10.296c.122.243.276.519.487.792.215.275.43.55.67.794-.122.12-.24.244-.394.362m-17.813.977c-1.218 0-2.134-.337-2.743-1.006-.577-.67-.881-1.734-.881-3.23 0-.728 0-1.49.029-2.253.031-.791.031-1.522.06-2.224l.093-4.047h-1.676v-1.01l3.291-3.258 1.003-.12-.121 2.74h4.021l-.212 1.647h-3.9l-.063 3.836c0 .638-.03 1.25-.03 1.856V61.5c0 .608.03 1.125.123 1.554.092.426.214.762.397 1.035.15.244.333.423.577.547.214.122.487.183.762.183.458 0 .853-.06 1.247-.212a4.117 4.117 0 001.006-.58l.307.122c-.124 1.794-1.22 2.71-3.29 2.71m-7.854-.396c-.276.06-.519.124-.824.154-.272.03-.577.06-.881.092-.336 0-.67.03-1.067.03-.334 0-.73-.03-1.128-.06-.426-.03-.82-.09-1.157-.215v-.516c.215-.06.397-.15.61-.275.182-.122.365-.244.518-.395.151-.122.275-.275.365-.458.09-.15.122-.336.122-.518V54.01l-1.951-.824v-.64a13.246 13.246 0 012.012-.424 8.385 8.385 0 011.615-.156h.974l-.153 1.65v11.573l1.707.453v.58c-.275.092-.519.185-.762.243m-.58-18.425c-.09.215-.212.426-.365.577-.151.186-.334.305-.548.397-.212.122-.427.154-.67.154a1.6 1.6 0 01-.64-.121 1.984 1.984 0 01-.517-.368 2.296 2.296 0 01-.334-.548 1.752 1.752 0 01-.124-.699c0-.243.031-.457.124-.67.061-.211.18-.397.334-.58.15-.18.334-.304.548-.397.214-.09.458-.15.73-.15.215 0 .427.03.61.12.182.06.365.183.518.337.151.122.244.302.334.516.093.183.124.427.124.67 0 .273-.031.517-.124.763m-9.283 18.82c-1.22 0-2.134-.335-2.743-1.005-.577-.67-.881-1.734-.881-3.23 0-.728 0-1.49.029-2.253.032-.791.032-1.522.06-2.223l.093-4.048h-1.675v-1.009l3.288-3.259 1.006-.12-.122 2.74h4.021l-.214 1.648h-3.897l-.064 3.836c0 .637-.029 1.249-.029 1.855v1.708c0 .608.03 1.125.122 1.554.092.426.214.762.397 1.035.15.244.333.423.577.548.214.121.487.182.762.182.458 0 .853-.06 1.247-.212a4.118 4.118 0 001.006-.58l.307.122c-.124 1.795-1.22 2.71-3.29 2.71m-7.469-2.71a4.545 4.545 0 01-1.157 1.4c-.49.427-1.098.763-1.797 1.006-.67.244-1.461.366-2.317.366-1.339 0-2.313-.212-2.922-.638-.638-.4-.945-1.038-.945-1.861 0-.212.031-.426.06-.667.061-.212.122-.397.215-.58.67.64 1.369 1.127 2.041 1.432.699.336 1.43.487 2.253.487.852 0 1.493-.182 1.948-.551.427-.362.641-.789.641-1.337 0-.275-.03-.518-.122-.733a2.573 2.573 0 00-.426-.638c-.214-.212-.487-.397-.823-.608a9.902 9.902 0 00-1.247-.612l-1.525-.638c-.882-.365-1.551-.881-2.038-1.522-.458-.641-.702-1.371-.702-2.256 0-.608.122-1.186.365-1.705a4.624 4.624 0 011.096-1.43 5.283 5.283 0 011.676-.976c.64-.24 1.371-.365 2.163-.365.609 0 1.128.06 1.554.153.426.06.791.212 1.064.363.275.156.487.368.612.58.119.246.18.518.18.794 0 .241 0 .456-.03.638-.031.212-.09.426-.121.64a6.603 6.603 0 00-1.676-.823c-.609-.214-1.218-.336-1.797-.336-.488 0-.914.06-1.279.154-.365.09-.638.244-.884.397-.241.18-.426.395-.548.609-.09.243-.151.487-.151.728 0 .275.03.518.09.733.092.246.214.426.397.608.183.212.426.397.73.548.305.186.702.333 1.157.516l1.644.641a8.747 8.747 0 011.404.702c.365.244.698.52.945.823.211.334.394.67.516 1.035.093.366.15.79.15 1.22 0 .576-.118 1.155-.394 1.703m-14.247 2.588c-.304 0-.64-.03-1.003-.06a3.383 3.383 0 01-.977-.217v-.516c.397-.18.67-.395.824-.728.182-.305.272-.736.272-1.284v-5.816c0-.728-.09-1.369-.212-1.888-.153-.548-.365-.974-.64-1.278a2.472 2.472 0 00-.943-.734 3.457 3.457 0 00-1.25-.211c-.608 0-1.217.095-1.765.275-.58.18-1.038.426-1.371.67v10.235l1.705.456v.58c-.276.092-.517.182-.763.24-.273.06-.548.125-.82.157-.276.03-.58.06-.914.09-.307 0-.64.03-1.035.03-.368 0-.762-.03-1.16-.06-.394-.03-.791-.092-1.125-.217v-.516c.212-.06.395-.149.578-.273a2.28 2.28 0 00.518-.397c.151-.121.273-.272.395-.457.093-.149.122-.337.122-.517V54.007l-1.978-.82v-.673a13.148 13.148 0 012.01-.423c.64-.092 1.188-.124 1.643-.124h.731v1.646c.519-.519 1.189-.942 1.98-1.25a7.015 7.015 0 012.528-.457c.641 0 1.218.092 1.737.307a3.79 3.79 0 011.34.91c.365.4.67.885.884 1.465.182.611.304 1.307.304 2.07v8.53l1.583.455v.58c-.852.336-1.919.516-3.198.516m-14.173-.274c-.275.06-.519.124-.823.154-.273.03-.577.06-.882.092-.336 0-.67.03-1.066.03-.334 0-.731-.03-1.128-.06-.427-.03-.82-.09-1.157-.215v-.516c.214-.06.397-.15.609-.275.182-.122.365-.244.519-.395.15-.121.275-.275.365-.458a.989.989 0 00.122-.518V54.01l-1.951-.824v-.64a13.314 13.314 0 012.012-.424 8.385 8.385 0 011.614-.156h.975l-.151 1.65V65.19l1.705.452v.58c-.276.092-.52.185-.763.243m-.58-18.425c-.09.215-.211.427-.362.577a1.402 1.402 0 01-.55.397c-.213.122-.427.154-.67.154a1.6 1.6 0 01-.641-.121 2.029 2.029 0 01-.517-.368 2.295 2.295 0 01-.333-.548 1.752 1.752 0 01-.125-.698c0-.244.032-.458.125-.67.06-.212.183-.398.333-.58.151-.18.337-.305.548-.398.215-.09.456-.15.731-.15.215 0 .426.03.612.121.18.06.362.182.516.336.15.122.243.302.333.517.093.182.125.426.125.67 0 .272-.032.516-.125.762m-6.936 16.11a4.582 4.582 0 01-1.157 1.4c-.49.426-1.099.762-1.798 1.005-.67.244-1.464.366-2.316.366-1.34 0-2.314-.212-2.923-.638-.638-.4-.945-1.038-.945-1.861 0-.212.032-.426.061-.667.06-.212.122-.397.215-.58.67.64 1.368 1.127 2.04 1.432.7.336 1.43.487 2.254.487.852 0 1.493-.182 1.948-.55.426-.363.64-.79.64-1.338 0-.275-.029-.518-.121-.733a2.573 2.573 0 00-.426-.638c-.215-.211-.487-.397-.824-.608a9.9 9.9 0 00-1.247-.612l-1.524-.638c-.885-.365-1.552-.881-2.039-1.522-.458-.64-.701-1.371-.701-2.256 0-.608.121-1.186.365-1.704a4.584 4.584 0 011.096-1.43 5.283 5.283 0 011.676-.977c.64-.24 1.368-.365 2.163-.365.608 0 1.127.06 1.554.153.423.06.789.212 1.064.363.275.156.487.368.611.58.12.246.18.519.18.794 0 .241 0 .456-.029.638-.031.212-.092.426-.122.64a6.603 6.603 0 00-1.675-.823c-.61-.214-1.218-.336-1.798-.336-.487 0-.913.06-1.279.154-.365.09-.638.244-.884.397-.243.18-.426.395-.548.609-.09.243-.15.487-.15.728 0 .275.028.518.09.733.09.246.214.426.396.608.183.212.427.397.731.548.304.186.702.333 1.157.517l1.644.64c.55.215 1.006.458 1.4.702.368.244.702.52.945.823.215.334.397.67.52 1.036.09.365.15.788.15 1.22 0 .575-.122 1.154-.394 1.702m-11.24 2.438c-.365.09-.762.15-1.22.15-.426 0-.82-.09-1.186-.275-.365-.18-.67-.484-.974-.881l-4.964-6.547v6.152l1.583.485v.58c-.275.093-.548.18-.823.212-.243.06-.519.124-.791.156-.276.06-.548.09-.853.09-.275.03-.609.03-.974.03-.336 0-.73-.03-1.128-.06-.426-.03-.823-.09-1.157-.215v-.516c.212-.06.426-.15.61-.275.21-.122.364-.241.515-.395.154-.122.276-.276.397-.458a.986.986 0 00.122-.516V46.64l-2.01-.824v-.67c.7-.214 1.401-.336 2.04-.428.64-.06 1.188-.12 1.614-.12h1.038l-.183 1.708v12.183l1.673-1.464c.397-.365.824-.73 1.189-1.16.365-.423.699-.85 1.006-1.276a7.36 7.36 0 00.667-1.28c.185-.427.275-.822.275-1.155.276-.092.549-.156.792-.185.246-.03.519-.06.823-.06.244 0 .458.03.641.06.18.06.394.121.577.214 0 .334-.122.699-.273 1.096a6.66 6.66 0 01-.762 1.34c-.336.455-.792.945-1.279 1.435-.519.484-1.128 1-1.829 1.488l-1.064.762 4.688 5.697c.43.516.824.884 1.22 1.125.366.212.731.336 1.036.336v.638a3.923 3.923 0 01-1.035.49m-15.928-12.918v13.676c0 1.25-.093 2.285-.276 3.14-.18.82-.426 1.49-.73 2.007-.305.521-.67.884-1.096 1.1a2.99 2.99 0 01-1.34.3c-.365 0-.67-.052-.977-.18a1.958 1.958 0 01-.76-.55v-.485c.337 0 .67-.093 1.006-.276a2.91 2.91 0 00.853-.884c.243-.395.455-.884.577-1.461a7.814 7.814 0 00.246-2.01V54.01l-1.95-.824v-.64a13.248 13.248 0 012.011-.424 8.353 8.353 0 011.612-.154h1.006zm.333-5.633c-.09.214-.18.426-.333.577-.183.185-.334.304-.548.397-.215.121-.427.154-.673.154-.24 0-.455-.03-.638-.122a1.595 1.595 0 01-.516-.368 1.251 1.251 0 01-.336-.547 1.75 1.75 0 01-.122-.7c0-.243.03-.457.09-.67a2.37 2.37 0 01.368-.58 1.4 1.4 0 01.548-.394c.212-.092.455-.154.73-.154.183 0 .395.03.578.122.214.06.365.182.519.336.153.121.243.301.333.516.093.182.122.426.122.67 0 .273-.03.517-.122.763m-7.41 18.426c-.272.06-.518.124-.82.154-.275.03-.58.06-.884.092-.337 0-.67.03-1.067.03-.334 0-.73-.03-1.128-.06-.426-.03-.82-.09-1.157-.215v-.516c.215-.06.397-.15.609-.275.183-.122.365-.244.519-.395.15-.122.275-.276.365-.458a.989.989 0 00.122-.518V54.01l-1.951-.824v-.64a13.312 13.312 0 012.012-.424 8.386 8.386 0 011.615-.156h.974l-.151 1.65V65.19l1.705.453v.58c-.275.092-.519.184-.763.243m-.58-18.425c-.09.215-.211.426-.362.577a1.402 1.402 0 01-.55.397c-.212.122-.427.154-.67.154a1.6 1.6 0 01-.641-.121 2.028 2.028 0 01-.516-.368 2.295 2.295 0 01-.334-.548 1.752 1.752 0 01-.124-.699c0-.244.031-.457.124-.67.061-.211.183-.397.334-.58.15-.18.336-.305.548-.397.214-.09.458-.15.73-.15.215 0 .427.03.612.12.18.06.363.183.516.337.151.121.244.302.334.516.092.183.124.427.124.67 0 .273-.031.517-.124.763m-6.66 18.697c-.366.124-.824.182-1.31.182a4.28 4.28 0 01-.914-.09c-.273-.092-.548-.182-.792-.368a3.78 3.78 0 01-.762-.664 8.288 8.288 0 01-.792-1.037l-4.02-6.095h-1.43v6.428l1.916.487v.67a12.396 12.396 0 01-3.47.518c-.52 0-1.036-.03-1.494-.06a9.417 9.417 0 01-1.37-.246v-.577c.579-.182 1.037-.426 1.341-.76.273-.336.427-.855.427-1.551v-14.96l-1.92-.606v-.67c.487-.093.945-.154 1.4-.212.488-.06.946-.092 1.433-.156.516-.03 1.003-.06 1.554-.06.516-.03 1.064-.03 1.673-.03 2.316 0 4.021.426 5.117 1.31 1.128.885 1.676 2.163 1.676 3.836 0 .76-.09 1.433-.304 2.076-.215.606-.487 1.154-.882 1.644a4.96 4.96 0 01-1.374 1.244 7.073 7.073 0 01-1.827.855l4.297 5.755c.365.49.789.914 1.279 1.282a6.19 6.19 0 001.551.791v.577c-.273.212-.609.368-1.003.487m-5.634-17.147c-.733-.701-1.768-1.035-3.079-1.035-.211 0-.426.03-.67.03-.214.03-.455.06-.637.093v8.527h1.186c.58 0 1.16-.09 1.675-.304a3.67 3.67 0 001.372-.882c.394-.365.701-.884.942-1.464.215-.577.336-1.278.336-2.07 0-1.247-.365-2.224-1.125-2.894" />
    <path fill="#0f578e" d="M25.73 137.63h98.347V.01H25.73z" />
    <path fill="#fff"
        d="M76.62 90.85h-1.711v-4.737h1.711zm7.707-20.9h-1.71v-4.743h1.71zm-31.663-8.18c-.13 0-1.014.002-1.014.187 0 .181.416.087 1.013.189 1.37.234 1.91.923 2.87.923.872 0 1.761-.592 1.414-1.855-.076-.21-.182-.16-.204-.016-.136.563-.825.886-1.554.886-.904 0-1.099-.312-2.522-.312m-9.415 4.74c.15.208 1.764 2.3-.712 3.101-.105.038-.143.142 0 .213 1.829.764 2.715-.64 2.715-.64.92 2.105-.492 3.272-.492 3.272.197.382 1.073 1.014 2.402 1.313.5-.273 1.209-.788 1.503-1.578 0 0 .363.918 0 1.796 3.736.34 5.057-2.647 7.936-2.11.084.015.121-.039.121-.126 0-1.842-1.13-5.21-4.695-5.893-3.552-.683-2.596-2.143-2.596-2.143 1.5-.068 2.364.582 2.364.582.272-.446-.113-.932-.113-.932.143-.173.227-.782.227-.782-1.69-.002-2.132-.365-2.132-.365-.258-1 .438-2.415 2.943-.902.62-.558.575-1.407.575-1.407.19-.088.303-.387.303-.512 0-.419-2.005-1.542-2.52-1.673-.121-.608-.9-1.484-3.256-1.17-1.115.14-1.919-.154-1.543-.802.076-.11-.136-.128-.242-.023-.257.256-.613.985.363 1.473 1.081.547 1.148 1.634 1.156 1.788 0 .23-.257.252-.318.023-.499-1.83-2.996-2.223-4.477-1.252.09.98 1.139 1.628 1.718 1.628.333 0 .792-.33.792-.787 0-.222.114-.194.182-.023.242.652-.719 1.997-2.152 1.177-1.457 1.457-.875 3.254-.726 3.915.265 1.188-.318 2.341-1.393 1.805-.075-.03-.106-.046-.106.08 0 .747.977 1.593 2.125.953m8.023-7.345c-.681.758-1.789.582-2.053-.667 1.396-.076 1.997.068 2.053.667m43.36 2.917c-.726 0-1.42-.323-1.553-.886 0-.141-.152-.192-.212.016-.348 1.262.545 1.855 1.415 1.855.96 0 1.5-.689 2.868-.924.598-.101 1.012-.008 1.012-.189 0-.184-.883-.186-1.012-.186-1.425 0-1.617.312-2.521.312m14.059 3.475c0-.128-.076-.107-.106-.08-1.073.536-1.652-.617-1.394-1.805.144-.662.727-2.458-.726-3.915-1.433.82-2.396-.526-2.15-1.177.075-.173.181-.2.181.023 0 .456.461.787.793.787.575 0 1.63-.648 1.719-1.628-1.482-.971-3.98-.579-4.479 1.252-.076.229-.34.208-.318-.023 0-.155.076-1.24 1.155-1.788.975-.489.62-1.217.364-1.473-.106-.107-.31-.089-.242.022.378.649-.424.943-1.54.804-2.357-.315-3.133.56-3.26 1.169-.514.13-2.518 1.254-2.518 1.673 0 .126.12.425.31.512 0 0-.076.849.582 1.407 2.504-1.514 3.2-.099 2.942.902 0 0-.447.363-2.133.365 0 0 .084.608.227.782 0 0-.386.486-.113.932 0 0 .864-.652 2.365-.582 0 0 .955 1.46-2.6 2.143-3.563.683-4.689 4.051-4.689 5.893 0 .09 0 .141.121.125 2.88-.536 4.201 2.45 7.94 2.111-.325-.878 0-1.796 0-1.796.295.79 1 1.305 1.502 1.578 1.327-.3 2.202-.932 2.402-1.314 0 0-1.411-1.166-.491-3.272 0 0 .886 1.404 2.716.641.167-.075.129-.178 0-.213-2.48-.8-.867-2.893-.718-3.101 1.15.64 2.122-.206 2.122-.953m-8.09-7.06c-.265 1.25-1.377 1.426-2.055.668.076-.6.659-.742 2.055-.667m-26.35-20.993c0 .318.136.592.242.747.22.313.19.484.083.587-.098.105-.272.139-.59-.08a1.333 1.333 0 00-.741-.246c-.537 0-.806.355-.806.657 0 .304.265.659.806.659.318 0 .59-.136.741-.246.318-.219.492-.187.59-.082.106.104-.075 1.187-.166 2.039-.894.187-1.324.902-1.324 1.318 0 1.076 1.148 1.695 1.823 2.055.673-.36 1.823-.98 1.823-2.055 0-.416-.431-1.132-1.322-1.318-.12-.852-.272-1.935-.174-2.04.099-.103.273-.136.59.083.152.11.432.246.75.246.536 0 .805-.355.805-.66 0-.301-.265-.656-.806-.656-.317 0-.59.136-.749.246-.317.219-.484.184-.59.08-.106-.103-.136-.274.084-.587.105-.155.242-.43.242-.747 0-.54-.356-.806-.659-.806-.302 0-.658.267-.658.806m.658 7.98c-.726 0-1.31.581-1.31 1.307 0 .72.59 1.308 1.31 1.308.727 0 1.308-.587 1.308-1.308 0-.726-.582-1.307-1.308-1.307m0 12.594c5.242 0 8.202 1 8.202 1 0-2.647 0-4.123 1.53-3.901-.831-2.226 2.746-3.101 2.746-6.002 0-1.909-1.35-2.125-1.748-2.125-1.188 0-1.001.771-2.013.771-.129 0-.257-.03-.257.06 0 .334.28.905.749.905.62 0 .635-.62 1.09-.62.205 0 .493.161.493.796 0 1.233-.81 2.602-1.765 3.66-.219-.303-.514-.49-.872-.49-.567 0-1.06.59-1.06 1.316 0 .27.076.465.144.692-.318.176-.605.277-.814.277-.431 0-1.078-.173-1.078-1.118 0-2.1 2.816-3.95 2.816-6.613 0-1.273-.85-2.538-2.624-2.538-1.906 0-1.55 1.737-3.197 1.737-.076 0-.136.023-.136.09 0 .11.287 1.074 1.14 1.074.91 0 1.168-1.578 1.974-1.578.303 0 .75.177.75 1.247 0 .83-.41 2.172-1.004 3.458a1.175 1.175 0 00-.83-.368c-.703 0-1.214.683-1.214 1.497 0 .518.204 1.014.552 1.343-.416.53-.84.966-1.417.966-1.137 0-1.64-.649-1.64-1.35 0-.761 1.39-1.039 1.39-2.227 0-.808-.53-1.265-1.03-1.265-.545 0-.823.36-.879.36-.075 0-.333-.36-.877-.36-.507 0-1.03.457-1.03 1.265 0 1.188 1.387 1.466 1.387 2.226 0 .702-.5 1.35-1.639 1.35-.575 0-1-.434-1.417-.965.348-.329.552-.825.552-1.343 0-.814-.506-1.497-1.21-1.497-.326 0-.621.155-.83.368-.59-1.286-1.005-2.628-1.005-3.458 0-1.07.454-1.247.757-1.247.806 0 1.062 1.578 1.978 1.578.85 0 1.137-.964 1.137-1.073 0-.068-.076-.091-.137-.091-1.649 0-1.294-1.737-3.197-1.737-1.774 0-2.623 1.265-2.623 2.538 0 2.663 2.818 4.513 2.818 6.613 0 .945-.65 1.118-1.081 1.118-.212 0-.492-.1-.814-.277.098-.227.143-.422.143-.692 0-.726-.499-1.315-1.059-1.315-.355 0-.65.186-.873.488-.955-1.057-1.76-2.426-1.76-3.659 0-.635.287-.795.483-.795.462 0 .477.62 1.094.62.462 0 .75-.572.75-.905 0-.091-.13-.06-.258-.06-1.012 0-.825-.772-2.01-.772-.401 0-1.75.216-1.75 2.125 0 2.9 3.575 3.776 2.745 6.002 1.519-.222 1.5 1.254 1.53 3.902 0 0 2.957-1.001 8.2-1.001M65.21 61.99c-1.428.313-2.45.608-2.909.748 0-.63.265-1.215.825-1.343.075-.016.09-.115 0-.16-1.274-.844-1.954.774-1.976.827-.454-.038-1.137.107-1.137.715 0 1.823-4.165 2.834-5.132 2.981 1.7.657 2.41 2.802 2.41 2.802 1.236-1.235 2.68-2.324 3-2.324.325 0 .454.41.477.657.008.08.083.106.136.037.643-.966.333-1.185.28-1.467-.076-.224 0-1.068.966-.97v12.158l-.484.098c-.227.038-2.002-1.476-4.036-2.882-2.036-1.407-3.13-.563-5.452.693-3.037 1.642-6.109.15-6.109.15-2.618 1.873-3.51 7.283-3.51 7.283-.521.224-1.388.46-2.207.46-1.999 0-2.367-1.21-2.367-1.936 0-3.085 3.864-4.409 3.864-7.449 0-.739-.34-3.741-4.053-3.741l-3.323-.006c-1.39 0-1.738-1.001-1.93-1.383-.075-.15-.22-.06-.159.053.106.257-.159.643-.159 1.417 0 1.234.727 1.978 2.077 1.978.613 0 1.193-.176 1.38-.288.12-.076.189.045.136.115-.59.688-.636 1.975-.393 2.287.075.08.128.06.143-.006.326-1.305 1.551-2.535 3.195-2.535 2.015 0 2.005 1.71 2.005 2.124 0 2.477-4.348 4.294-4.348 7.7 0 3.45 3.648 4.19 5.762 3.643-.129 3.456-4.08 4.633-4.2 2.164 0-.12-.091-.147-.16.008-.499 1.22-.302 2.295 1.24 2.64.105.022.075.082-.076.143-1.524.972-.696 4.78-.62 5.901.113 1.617-1.493 1.425-1.624 1.377-.075-.03-.128.008 0 .136 1.14 1.396 2.546.12 2.546.12 1.062.334.401 1.239-.302 1.714-.114.08-.099.152 0 .157.159.008 1.803.15 2.097-1.163.726.87 1.799.552 2.026.438.317-.16 1.857-.718 2.01 1.011 0 .126.082.046.135-.022 1.167-1.463-.083-2.365-.777-2.474.076-.08.99-.857 1.831.218.076.076.106.088.121-.06.098-1.855-1.417-2.028-2.393-1.22-.076-.186-.371-1.235 1.104-1.198 0 0 .106-.053 0-.126-1.148-1.209-2.09-.11-2.309.158-.514.597-1.783.358-1.9.344.4-6.459 6.087-4.171 6.87-7.31 0-.166.113-.104.128-.038.212.766 2.148.87 2.5-.638 0-.093 0-.165-.075-.099-1.646 1.65-5.356-3.496-.295-7.673 4.321-3.565 8.194-1.577 9.667-.405.076.515-.227.683-.424.744-.075.023-.09.089 0 .131.416.158.994.11 1.265-.274.93.646.136 1.462-.242 1.686-.09.06-.075.126 0 .142.851.152 1.553-.718 1.588-1.22l.144.083v3.67c0 5.222 6.028 5.948 12.645 10.378 6.616-4.43 12.642-5.156 12.642-10.379v-3.67l.143-.082c0 .502.734 1.372 1.586 1.22.083-.016.121-.077 0-.142-.37-.224-1.169-1.04-.242-1.686.272.384.854.432 1.265.274.106-.045.09-.11 0-.13-.197-.061-.507-.23-.424-.745 1.471-1.172 5.346-3.16 9.667.405 5.06 4.177 1.35 9.323-.295 7.673-.075-.068-.075.006-.075.1.355 1.507 2.284 1.403 2.498.637 0-.06.09-.125.128.038.782 3.139 6.472.851 6.87 7.31-.114.016-1.388.253-1.898-.344-.22-.267-1.164-1.367-2.311-.158-.076.076-.006.126 0 .126 1.479-.038 1.153 1.011 1.105 1.198-.977-.808-2.49-.635-2.391 1.22 0 .147.075.13.12.06.838-1.075 1.772-.298 1.828-.218-.696.11-1.94 1.011-.776 2.474.076.068.121.146.136.022.152-1.729 1.695-1.171 2.013-1.011.227.115 1.294.432 2.026-.438.287 1.313 1.937 1.174 2.097 1.163.12-.006.128-.077 0-.157-.711-.475-1.37-1.38-.31-1.713 0 0 1.409 1.275 2.546-.12.098-.126 0-.163 0-.137-.136.046-1.74.24-1.626-1.377.076-1.12.903-4.93-.62-5.9-.098-.061-.144-.121-.076-.144 1.54-.345 1.74-1.42 1.239-2.64-.076-.155-.152-.128-.16-.008-.12 2.469-4.078 1.292-4.203-2.164 2.114.547 5.762-.192 5.762-3.643 0-3.406-4.347-5.223-4.347-7.7 0-.414 0-2.124 2.004-2.124 1.644 0 2.866 1.23 3.194 2.535 0 .06.084.085.144.006.242-.312.197-1.599-.393-2.287-.076-.068.008-.187.136-.115.189.112.765.288 1.38.288 1.35 0 2.076-.744 2.076-1.978 0-.773-.265-1.16-.16-1.417.076-.117-.09-.202-.166-.053-.196.382-.544 1.383-1.932 1.383l-3.326.006c-3.712 0-4.05 3.002-4.05 3.741 0 3.04 3.863 4.364 3.863 7.45 0 .725-.37 1.934-2.367 1.934-.819 0-1.684-.235-2.204-.46 0 0-.891-5.409-3.512-7.282 0 0-3.072 1.492-6.109-.15-2.322-1.257-3.416-2.1-5.453-.693-2.033 1.406-3.81 2.92-4.032 2.882l-.492-.098V64.495c.945-.1 1.012.744.97.969-.076.283-.364.501.287 1.467.075.069.128.046.128-.037 0-.246.152-.657.477-.657.318 0 1.764 1.089 3 2.324 0 0 .71-2.145 2.413-2.802-.97-.147-5.135-1.158-5.135-2.98 0-.61-.689-.75-1.137-.716 0-.053-.704-1.67-1.973-.827-.075.045-.075.141 0 .16.56.128.803.713.827 1.343-1.217-.371-6.389-1.823-12.525-1.823-2.978 0-5.721.344-7.902.737v4.214h-1.711zM53.89 105.162c-.454-.181-.757-.473-.757-1.067v-2.616c-.749-.267-2.8-1.049-6.888-1.049-3.4 0-4.465.766-4.513 1.039l-.905 4.982s1.377-1.257 6.307-.934c5.935.376 12.087 3.878 12.087.147v-2.2c-4.655 0-5.335 1.48-5.335 1.698m36.529-1.697v2.199c0 3.73 6.151.23 12.089-.147 4.927-.323 6.304.934 6.304.934l-.905-4.982c-.075-.273-1.113-1.039-4.512-1.039-4.09 0-6.139.782-6.886 1.05v2.615c0 .595-.303.886-.757 1.067 0-.218-.68-1.697-5.335-1.697m-15.597-2.263c9.56 0 19.266.501 20.537 1.945.098.115.144-.006.144-.09l.004-5.066c0-1.481-10.016-2.34-20.684-2.34-10.667 0-20.68.859-20.68 2.34l.002 5.065c0 .086.075.206.144.091 1.27-1.444 10.977-1.945 20.537-1.945m-8.527-23.89l-.966-.25-.084.12-1.123-.489 1.003-.008c.091 0 .098-.06.076-.104-.454-.45-.857-.841-.857-.841l1.108.41c.076.03.098-.03.076-.076-.31-.465-.742-1.084-.742-1.084s.905.603 1.087.728c.075.046.106 0 .083-.052l-.515-1.274.99.935c.076.037.1.022.084-.046-.098-.448-.272-1.27-.272-1.27l.726 1.062c.076.06.098.045.098-.03.004-.208 0-1.161 0-1.161s.31.704.462 1.062c0 .076.09.08.128-.016.076-.115.371-.897.371-.897l.076 1.212-.16.03-.203 1.455c1.444-.34 3.242-2.805 4.62-2.805 1.64 0 2.239 1.924 5.273.95.766 1.131 1.033 2.116 1.329 3.483 1.172 1.1 2.816.733 2.816-.433 0-1.575-1.714-1.874-1.714-3.515 0-.729.515-1.783 1.914-1.783.741 0 1.826.318 2.45.318.741 0 .9-.536.982-.758.076-.168.273-.112.25.016 0 .155.083.369.083.72 0 1.038-1.507 1.175-1.694 1.044-.084-.053-.136.03-.084.075.227.184.174.804-.09 1.196 0 .045-.076.038-.084-.006-.166-.742-1.032-1.657-1.801-1.657-.28 0-.844.16-.844.811 0 .934 1.869 1.783 1.869 3.718 0 2.012-1.991 2.492-3.993 1.99.076 1.904 2.909 3.035 2.976 1.674.002-.093.076-.038.084.006.423.58.227 1.022-.31 1.246.491.224.582 1.225.726 1.818.22.897 1.166.403 1.214.376.075-.03.075-.006.075.053-.363.931-1.313.576-1.313.576-.5.355.106.668.56.804.076.022.076.068 0 .088-.34.126-1.052.35-1.399-.248-.257.619-.784.598-.99.598-.363 0-.605.376-.522.875 0 .045 0 .06-.076.03-.873-.579-.37-1.257 0-1.428-.075-.038-.665-.288-.917.416 0 .06-.076.06-.076.006-.378-1.011.446-1.307 1.05-1.051-.076-.142-.356-.638-1.146-.48 0 .007-.076-.007 0-.054.129-.312.522-.771 1.236-.307.363.23.996-.104 1.052-.13-1.27-2.533-3.742-.411-4.294-2.397 0-.046-.076-.08-.09.03-.137.421-1.212.45-1.41-.382 0-.06 0-.076.075-.03.16.162.5.302.943-.34.295-.427.333-.995.333-1.379 0-1.537-1.537-4.123-3.934-4.123-1.515 0-3.146.592-4.355 1.473l1.126.256a1.741 1.741 0 01-2.207 1.524l.174-1.305c-.174.06-.613.214-.852.547 0 .03-.076.023-.076-.008-.204-.734.401-1.11.59-1.203v-.03c-.544-.023-.854.378-.94.52 0 .023 0 .016-.075-.006-.076-.136-.136-.515.114-.788m3.343 8.8c-.43.525-.808.03-1.374.03-.537 0-.62.443-.635.619-.004.03 0 .045-.076.008-.605-.825.076-1.273.462-1.33-.076-.06-.65-.459-1.028.088 0 .046-.075.023-.075-.03 0-1.022.793-1.094 1.326-.646.098-.384-.151-.646-.582-.667-.076 0-.076-.03-.076-.053.181-.195.355-.283.537-.283.567 0 .643.72 1.015.72.56 0 1.345-.753 1.42-.835 0-.038-.545-1.484-.447-2.351.006-.038 0-.038 0-.023-.272.15-.953.144-.953-.694 0-.068 0-.075.076-.022.295.416.787-.053 1.03-.323.265-.292 1.665-2.335 3.536-2.335.409 0 .945.223 1.372.52-.643.787-.006 1.543.477 1.444.076-.008.076.045 0 .06-2.475.926-3.58 1.303-3.58 3.371 0 1.086.372 1.684 1.004 1.543.076-.016.076.006 0 .045-.227.278-.492.365-.719.365-.514 0-.605-.283-.88-.283-.288 0-1.207.542-1.207.996 0 .173.106.408.439.622v.03c-.204.038-.937.104-1.108-.59m6.518-20.147c-.774-.045-1.27.125-1.246.374.378.398.877.352 1.246-.374m-2.856 1.913c.545-.136 1.147-.075 1.212-.053.09.03.083.158 0 .171-1.14.147-1.193.67-1.919.67-.476 0-.997-.48-.803-1.193 0-.091.098-.093.113-.008.076.307.515.64 1.407.41M58.544 93.146c.756.963 1.478.053 2.468.053.485 0 1.073.162 1.185 1.131.004.053.076.068.09 0 1.079-1.476-.15-2.303-.859-2.412.152-.137 1.21-.788 1.88.17 0 .054.105.038.105-.037 0-1.866-1.398-1.997-2.412-1.188-.19-.723.355-1.204 1.065-1.204.083 0 .114-.06.076-.11-1.25-1.34-2.186.345-2.397.614-.5.662-2.284-.582-2.997-1.329 0 0 1.578-1.652 1.578-3.162v-.268c0-.045 0-.068.075-.037.16.087.379.155.583.15.363 0 1.04-.116 1.04-1.396 0-.094-.075-.089-.082-.03-.19.272-.394.328-.553.328-1.275 0-3.934-4.25-7.07-4.25-.819 0-2.37.596-3.151 1.44.378.223.454.682.408 1.021-.075.537-.484.804-.92.93-.083.015-.083.075 0 .109 1.582.603 4.462 1.695 5.116 2.258.776.667.628 1.932.174 3.678-.431 1.673-1.36 1.443-1.702 1.393-.076-.008-.076.022 0 .06.408.517.905.688 1.331.688.823 0 1.13-.51 1.557-.51.718 0 2.217 1.028 2.217 1.807 0 .44-.348.836-.784 1.121v.06c.34.054 1.745.177 2.017-1.083m34.647 1.084c.076-.006.076-.046 0-.06-.446-.287-.787-.682-.787-1.122 0-.779 1.5-1.806 2.218-1.806.423 0 .734.51 1.555.51.424 0 .92-.171 1.332-.689v-.06c-.34.053-1.27.28-1.703-1.393-.446-1.746-.597-3.01.174-3.678.651-.563 3.534-1.655 5.119-2.258.083-.038.076-.093 0-.11-.439-.125-.865-.392-.923-.929-.076-.338 0-.798.409-1.022-.783-.843-2.336-1.438-3.152-1.438-3.137 0-5.797 4.249-7.07 4.249-.159 0-.363-.053-.552-.329-.076-.053-.083-.06-.083.03 0 1.282.68 1.396 1.04 1.396.205.006.424-.06.583-.15.076-.03.076-.005.076.038v.268c0 1.51 1.58 3.162 1.58 3.162-.712.748-2.501 1.991-3 1.33-.212-.27-1.148-1.954-2.397-.614-.076.053 0 .11.076.11.703 0 1.252.48 1.062 1.203-1.012-.809-2.41-.678-2.41 1.188 0 .075.076.09.106.038.666-.959 1.722-.308 1.874-.171-.704.11-1.935.936-.854 2.412.076.068.083.053.09 0 .107-.969.697-1.131 1.182-1.131.99 0 1.714.907 2.47-.053.272 1.26 1.675 1.14 2.017 1.083M67.885 69.721c-.098.136-.43-.006-.552-.06v.022c.083.179.401.71.87.71.212 0 .522-.126.613-.27 0 0 1.847.601 2.76.852a3.124 3.124 0 00-.62 1.66c-.735-.454-3.684-2.034-3.684-2.034l-.916 1.25c-.15.205-.88-.326-.726-.537l.696-.953c-.227-.246-.787-.09-.936-.045 0 .006-.076-.006 0-.038.09-.19.438-.766 1.302-.507.004-.529-.787-.358-.992-.302v-.03c.212-.23.853-.747 1.574-.323l.31-.43-.635-.664.393-.545.447.598 3.402-4.66c.084-.112.757-.31 1.012-.363 0 .259.075.958 0 1.073l-3.344 4.7.704.232-.394.547-.833-.39zm11.927-.76c0 .426.265 1.051.836.872 0-.016.075-.006.075.023-.09.475-.936.91-1.327.347-.34.728-.265 1.41.477 1.81.075.022.075.075 0 .109-.439.323-1.131.251-1.454-.37-.613.459-.522 1.438-.151 1.771 0 .006-1.687 1.007-3.222.292-1.017-.489-1.844-1.11-3.154-1.01.181-1.835 1.102-2.321 2.791-2.585 1.348-.219 1.522-.838 1.33-1.308-.462-.122-1.3.299-1.3.299-.152-.251.075-.515.075-.515-.083-.102-.12-.44-.12-.44.941 0 1.109-.209 1.109-.209.166-.982-.832-1.086-1.596-.557-.355-.313-.295-.732-.295-.732-.106-.053-.174-.216-.174-.285 0-.232 1.12-.862 1.409-.937.076-.325.477-.776 1.668-.67.144-.314-.09-1.462-.234-1.774-.076-.093 0-.144.128-.08.416.264.827 1.233 1.11 1.251 0 0 1.338-.702 1.401-.661.076.037.257 1.529.257 1.529.174.218 1.21.006 1.661.197.114.053.106.133.008.15-.34.053-1.414.52-1.59.82.62.923.325 2.286.325 2.663" />
</svg>